<?xml version="1.0" encoding="UTF-8"?>
<svg version="1.1" xmlns="http://www.w3.org/2000/svg" width="600" height="600">
<path d="M0 0 C198 0 396 0 600 0 C600 198 600 396 600 600 C402 600 204 600 0 600 C0 402 0 204 0 0 Z " fill="#010101" transform="translate(0,0)"/>
<path d="M0 0 C1.875 0.0625 1.875 0.0625 4 1 C7.10098519 4.43257568 8.90144301 7.70208358 10.5625 12 C11.68317593 14.88068829 12.75027811 17.58596834 14.34765625 20.234375 C17.35670117 25.27079061 19.67411267 30.67562074 22.15234375 35.98828125 C24.55283034 41.09023286 27.10316292 46.03560836 29.88305664 50.94018555 C31.47227613 53.87094944 32.71623661 56.92526424 34 60 C35.27279742 62.66600378 36.60315894 65.30185871 37.9375 67.9375 C39.96484375 71.96484375 39.96484375 71.96484375 40.96826172 73.96826172 C41.67911208 75.36809529 42.40569743 76.76001228 43.14501953 78.14501953 C43.69391846 79.18891846 43.69391846 79.18891846 44.25390625 80.25390625 C44.58849854 80.87724854 44.92309082 81.50059082 45.26782227 82.14282227 C46 84 46 84 46 88 C46.66 88 47.32 88 48 88 C48.47179687 89.17755859 48.47179687 89.17755859 48.953125 90.37890625 C51.71430883 97.26906397 51.71430883 97.26906397 55.1875 103.8125 C57.14351581 107.25238986 58.06457523 110.18034884 59 114 C62.2467739 113.27946535 62.2467739 113.27946535 63.68359375 110.19140625 C64.27951151 108.98728897 64.86348029 107.77720893 65.4375 106.5625 C65.74896973 105.9228833 66.06043945 105.2832666 66.38134766 104.62426758 C68.03077079 101.19407038 69.53657044 97.75253357 70.875 94.1875 C72.9920114 88.61301146 75.86650435 83.45220156 78.73974609 78.23901367 C81.26875511 73.59779973 83.24567176 68.98834548 85 64 C85.66 64 86.32 64 87 64 C87.10054688 63.14277344 87.20109375 62.28554688 87.3046875 61.40234375 C88.06720732 57.67113719 89.35601101 54.92992524 91.125 51.5625 C91.76493821 50.32651168 92.40289551 49.0894961 93.0390625 47.8515625 C93.36551758 47.21766602 93.69197266 46.58376953 94.02832031 45.93066406 C95.6017556 42.80435094 97.04606433 39.62066301 98.5 36.4375 C100.70874338 31.62541751 103.06680062 26.95269715 105.625 22.3125 C108.44531844 17.190397 110.75770271 12.01258135 112.859375 6.55859375 C114.00811024 3.98180752 115.03383648 2.02820266 117 0 C118.32 0 119.64 0 121 0 C122.98459219 7.22391557 124.43257485 14.35257259 125.41015625 21.77734375 C125.83662207 24.94768912 126.33945422 28.09951173 126.87109375 31.25390625 C129.23767972 45.3475082 131.08069355 59.44537443 132.60498047 73.65136719 C132.72265778 74.71430748 132.72265778 74.71430748 132.8427124 75.79872131 C133.05643998 77.73010729 133.2630855 79.66227324 133.46923828 81.59448242 C133.98762401 84.92059213 134.8874744 87.83176338 136 91 C136.25054649 93.07669461 136.43920666 95.16188296 136.5625 97.25 C136.71536617 101.27628227 136.71536617 101.27628227 138 105 C138.25501348 106.75390173 138.46366464 108.51465769 138.6484375 110.27734375 C138.76703125 111.34919922 138.885625 112.42105469 139.0078125 113.52539062 C139.24877515 115.76454887 139.48588373 118.00412591 139.71875 120.24414062 C141.18873343 134.63414039 141.18873343 134.63414039 148 147 C152.86741517 149.11626747 157.29001235 149.33539098 162.5 149.3125 C163.23347656 149.32861328 163.96695313 149.34472656 164.72265625 149.36132812 C169.52124956 149.36562025 172.91079187 148.76021549 177 146 C179.58914404 142.41910062 180.37701217 139.92098319 180.39440918 135.52830505 C180.41143387 133.89852722 180.41143387 133.89852722 180.42880249 132.23582458 C180.42587189 131.05383987 180.42294128 129.87185516 180.41992188 128.65405273 C180.42839142 127.40153717 180.43686096 126.14902161 180.44558716 124.85855103 C180.46495898 121.43082628 180.47073577 118.00364625 180.46883965 114.57590365 C180.46871984 111.71291 180.47728751 108.84996715 180.48561716 105.98698765 C180.5048374 99.23388491 180.50773935 92.4809058 180.50097656 85.7277832 C180.49432908 78.76170594 180.51723108 71.79615729 180.55429029 64.83018726 C180.58496987 58.84617829 180.59634948 52.86233958 180.59245348 46.87825352 C180.59038496 43.30546289 180.5958809 39.73308408 180.62034607 36.16036797 C180.64671173 32.17888447 180.63289849 28.19809639 180.61523438 24.21655273 C180.62849762 23.03254379 180.64176086 21.84853485 180.65542603 20.62864685 C180.74407532 14.41697953 180.74407532 14.41697953 177.6697998 9.28822327 C174.47363238 7.74601878 171.7083247 7.17676663 168.1875 6.75 C167.02605469 6.60046875 165.86460937 6.4509375 164.66796875 6.296875 C163.78753906 6.19890625 162.90710938 6.1009375 162 6 C162.33 5.01 162.66 4.02 163 3 C172.7191268 2.90694302 182.43809805 2.83605514 192.15757465 2.79275131 C196.67169854 2.77195797 201.18551556 2.74379305 205.69946289 2.69824219 C210.06317815 2.65448751 214.42659995 2.63080097 218.79051781 2.62049103 C220.44775188 2.61315241 222.10497156 2.59882304 223.76207924 2.57707977 C235.49958247 2.42932309 245.24062425 3.6720906 255.4375 10 C256.61119141 10.7115625 256.61119141 10.7115625 257.80859375 11.4375 C260.16829754 13.11999825 262.11224765 14.79833895 264 17 C264 17.99 264 18.98 264 20 C264.66 20 265.32 20 266 20 C271.77228893 29.4963463 272.43845584 39.39997777 270 50.3125 C269.67 51.529375 269.34 52.74625 269 54 C268.34 54 267.68 54 267 54 C266.90203125 54.721875 266.8040625 55.44375 266.703125 56.1875 C264.75926088 63.96295649 257.98323718 70.49274714 252.13671875 75.640625 C248.15327233 79.263694 248.15327233 79.263694 246.25 84.1875 C246.74457472 87.16096752 246.74457472 87.16096752 249.25 88.796875 C252.28636299 91.22941581 254.46458323 93.9565238 256.75 97.0625 C257.62618761 98.22762911 258.50381875 99.39167393 259.3828125 100.5546875 C260.03878418 101.42432129 260.03878418 101.42432129 260.70800781 102.31152344 C263.33815413 105.7488046 266.11255297 109.06810751 268.87109375 112.40234375 C270.8532558 114.82094515 272.77062721 117.27963528 274.6875 119.75 C278.35411759 124.34253113 282.26632725 128.68328544 286.25 133 C286.85287842 133.65967773 287.45575684 134.31935547 288.0769043 134.99902344 C288.65480713 135.6180957 289.23270996 136.23716797 289.828125 136.875 C290.3427832 137.42929687 290.85744141 137.98359375 291.38769531 138.5546875 C293.14069518 140.12612288 294.85835149 141.04351308 297 142 C297 142.66 297 143.32 297 144 C302.93317878 146.10396411 308.82777121 147.75971762 315 149 C315 149.99 315 150.98 315 152 C310.16198021 152.07463717 305.32430196 152.12883014 300.48583984 152.16479492 C298.84287674 152.17980136 297.19995314 152.20021312 295.55712891 152.22631836 C293.18381958 152.26306359 290.81104375 152.27980772 288.4375 152.29296875 C287.71320801 152.30845261 286.98891602 152.32393646 286.24267578 152.33988953 C278.51325896 152.34239114 272.48137106 150.0441818 266.8125 144.625 C266.01457031 143.87476563 265.21664063 143.12453125 264.39453125 142.3515625 C263.60433594 141.57554687 262.81414062 140.79953125 262 140 C261.16210938 139.20851563 260.32421875 138.41703125 259.4609375 137.6015625 C256.83441043 134.82494817 254.86334846 131.97106179 252.8125 128.75 C250.51002763 124.72257485 250.51002763 124.72257485 247 122 C246.03331959 120.33330965 245.07102241 118.66377571 244.140625 116.9765625 C241.98031215 113.23300668 239.56908439 109.52915858 236.46484375 106.50390625 C234.5951641 104.58436847 233.48234565 102.37804633 232.2578125 100.01171875 C230.46131869 97.13844449 228.16937467 94.6032496 226 92 C219.4 91.67 212.8 91.34 206 91 C206 108.16 206 125.32 206 143 C206.66 143 207.32 143 208 143 C208.29003906 143.93585938 208.29003906 143.93585938 208.5859375 144.890625 C209.89813187 147.30713529 209.89813187 147.30713529 213.0390625 148.046875 C214.81410156 148.39492188 214.81410156 148.39492188 216.625 148.75 C218.40777344 149.11351562 218.40777344 149.11351562 220.2265625 149.484375 C221.14179688 149.65453125 222.05703125 149.8246875 223 150 C223 150.66 223 151.32 223 152 C211.39120399 153.20390485 199.82469073 153.12852221 188.16796875 153.09765625 C186.07904596 153.09578753 183.99012273 153.09436578 181.90119934 153.09336853 C176.44496416 153.08957905 170.98875626 153.07977988 165.53253174 153.06866455 C159.94812387 153.05837306 154.36371153 153.05385444 148.77929688 153.04882812 C137.8528527 153.03815387 126.92642863 153.02112114 116 153 C114.875 149.25 114.875 149.25 116 147 C116.66 147 117.32 147 118 147 C117.88361873 144.87451055 117.75637282 142.74961554 117.625 140.625 C117.55539062 139.44164062 117.48578125 138.25828125 117.4140625 137.0390625 C117.17737344 134.20439586 116.71877306 131.50571834 116.1171875 128.7265625 C114.39158972 120.48726409 113.5354355 112.09770923 112.5 103.75 C112.07460184 100.34874544 111.64698199 96.94777379 111.21875 93.546875 C111.11573578 92.72410065 111.01272156 91.90132629 110.90658569 91.05361938 C110.28604325 86.13331835 109.60774802 81.22630212 108.8828125 76.3203125 C108.14565306 71.25363919 107.61992146 66.23773547 107.375 61.125 C107.33632813 60.42503906 107.29765625 59.72507812 107.2578125 59.00390625 C107.1664328 57.3362268 107.08232433 55.66815099 107 54 C106.01 54 105.02 54 104 54 C103.72736328 55.03060547 103.72736328 55.03060547 103.44921875 56.08203125 C103.19785156 56.98308594 102.94648438 57.88414062 102.6875 58.8125 C102.44386719 59.70582031 102.20023438 60.59914063 101.94921875 61.51953125 C101 64 101 64 99.56396484 65.40161133 C97.81103179 67.19312751 97.02250226 68.76218943 96.02734375 71.0546875 C95.68509766 71.83457031 95.34285156 72.61445313 94.99023438 73.41796875 C94.64283203 74.22878906 94.29542969 75.03960937 93.9375 75.875 C93.58623047 76.67808594 93.23496094 77.48117187 92.87304688 78.30859375 C91.18545065 82.18145163 89.53751337 86.06460309 88 90 C87.34 90 86.68 90 86 90 C85.74863281 90.99644531 85.49726563 91.99289062 85.23828125 93.01953125 C84.04539993 97.18885569 82.19725644 100.85990642 80.1875 104.6875 C77.19577695 110.50778583 74.49516012 116.34989818 72.10546875 122.44921875 C70.57386928 125.98326277 68.55208429 129.12586653 66.5 132.375 C64.26032335 136.29443414 62.54097188 140.35515307 61.1328125 144.63671875 C60.23544155 147.236128 59.37731426 149.61810998 58 152 C54.75 153.125 54.75 153.125 52 153 C51.75765625 152.33613281 51.5153125 151.67226563 51.265625 150.98828125 C49.35387766 145.9515623 47.44411825 142.18214359 44 138 C44 136.68 44 135.36 44 134 C43.34 134 42.68 134 42 134 C41.49596232 132.70990357 40.99690074 131.41786211 40.5 130.125 C40.2215625 129.40570313 39.943125 128.68640625 39.65625 127.9453125 C39 126 39 126 39 124 C38.34 124 37.68 124 37 124 C35.23537317 120.91190305 35 119.76687864 35 116 C34.34 116 33.68 116 33 116 C32.01 112.7 31.02 109.4 30 106 C29.34 106 28.68 106 28 106 C27.61328125 105.0821875 27.2265625 104.164375 26.828125 103.21875 C22.24497965 92.13127288 22.24497965 92.13127288 16.5 81.625 C15.08690683 79.15208696 14.08869101 76.77632619 13.0625 74.125 C11.84981784 70.99804561 10.57650301 68.07815753 8.875 65.1875 C7 62 7 62 5.9375 59.125 C5.628125 58.42375 5.31875 57.7225 5 57 C4.01 56.67 3.02 56.34 2 56 C2.05220703 57.65322266 2.05220703 57.65322266 2.10546875 59.33984375 C2.13367494 60.8723802 2.16096752 62.40493366 2.1875 63.9375 C2.21263672 64.65357422 2.23777344 65.36964844 2.26367188 66.10742188 C2.34157592 72.20990512 1.3672494 78.00156411 0.24813843 83.97537231 C-1.31964596 92.46089782 -2.35341415 101.00032641 -3.36254883 109.56762695 C-3.68934841 112.3281136 -4.02888729 115.08684618 -4.36914062 117.84570312 C-5.46428533 126.92590909 -6.39267948 135.83394115 -6 145 C-1.70543612 147.30440013 2.31479085 148.78184562 7 150 C7 150.66 7 151.32 7 152 C-2.56720221 153.16104917 -12.0701808 153.11587919 -21.6875 153.0625 C-23.27538921 153.05747247 -24.86327996 153.05291179 -26.45117188 153.04882812 C-30.30082025 153.03792755 -34.15039253 153.02073283 -38 153 C-37.67 152.01 -37.34 151.02 -37 150 C-35.00099583 149.54121216 -33.00171515 149.08353017 -31 148.63671875 C-27.73229097 147.59641295 -26.68225296 145.92836627 -25 143 C-22.54620291 136.86276254 -21.26991027 130.7132566 -20.375 124.1875 C-20.18671631 122.88244507 -20.18671631 122.88244507 -19.99462891 121.55102539 C-19.18402747 115.7852613 -18.5612752 110.02878134 -18.2109375 104.21484375 C-18 102 -18 102 -17 99 C-16.73330284 96.26529583 -16.5564078 93.53089492 -16.37890625 90.7890625 C-16 88 -16 88 -15.0546875 85.8762207 C-13.64357767 82.02800661 -13.22729101 78.24756538 -12.74609375 74.19140625 C-12.64031509 73.34706528 -12.53453644 72.5027243 -12.42555237 71.63279724 C-12.08986209 68.94343938 -11.76337344 66.25306335 -11.4375 63.5625 C-11.10614759 60.87577421 -10.77290304 58.1892915 -10.43873596 55.50291443 C-10.23187517 53.83476209 -10.02697153 52.16636552 -9.82432556 50.49769592 C-9.3117707 46.3116152 -8.73176389 42.15497284 -8 38 C-7.34 38 -6.68 38 -6 38 C-6.02320313 37.46375 -6.04640625 36.9275 -6.0703125 36.375 C-6.32495287 25.3163327 -5.27945166 12.61266997 -2 2 C-1.34 1.34 -0.68 0.68 0 0 Z " fill="#F7F7F7" transform="translate(220,332)"/>
<path d="M0 0 C9.75601375 -0.57388316 9.75601375 -0.57388316 14 3 C22.38874873 11.4928275 29.17922253 21.62238532 35 32 C35.43054688 32.7425 35.86109375 33.485 36.3046875 34.25 C40.23973976 41.48463023 42.28631752 49.21437829 44.453125 57.11108398 C44.92039619 58.725047 45.47338427 60.31377431 46.04296875 61.89453125 C47.36552409 66.18608837 47.99761856 70.49729208 48.625 74.9375 C48.82174316 76.32062378 48.82174316 76.32062378 49.02246094 77.73168945 C51.68100714 97.63798572 51.68100714 97.63798572 49 103 C48.91902676 105.27024968 48.86082296 107.54132075 48.8125 109.8125 C48.35105598 121.30969958 44.61401281 132.15796158 41 143 C40.34 143 39.68 143 39 143 C38.9175 144.19625 38.835 145.3925 38.75 146.625 C38.21796156 150.94971246 36.56257479 153.4576172 34 157 C33.505 158.175625 33.01 159.35125 32.5 160.5625 C31.02180213 163.95003679 29.36393125 166.19283164 27 169 C26.55398438 169.76054687 26.10796875 170.52109375 25.6484375 171.3046875 C23.84567452 174.25233314 21.82023955 176.83274649 19.625 179.5 C18.49964844 180.87671875 18.49964844 180.87671875 17.3515625 182.28125 C15.01202058 184.98610245 12.54479166 187.48925238 10 190 C9.34 190.78375 8.68 191.5675 8 192.375 C6 194 6 194 3.640625 193.90625 C0.15296734 192.7093024 -1.01991091 191.040635 -3.25 188.125 C-4.02472656 187.12726563 -4.79945313 186.12953125 -5.59765625 185.1015625 C-6.39042969 184.07804688 -7.18320312 183.05453125 -8 182 C-9.56023161 180.1647358 -11.1226737 178.33134814 -12.6875 176.5 C-16.91285996 171.33976075 -20.03609715 165.95483216 -23 160 C-23.41378906 159.22011719 -23.82757813 158.44023437 -24.25390625 157.63671875 C-27 152.40287456 -27 152.40287456 -27 149 C-27.66 149 -28.32 149 -29 149 C-29.18175781 148.29875 -29.36351562 147.5975 -29.55078125 146.875 C-29.80214844 145.92625 -30.05351562 144.9775 -30.3125 144 C-30.55613281 143.071875 -30.79976562 142.14375 -31.05078125 141.1875 C-31.98261565 137.88244959 -31.98261565 137.88244959 -33.46875 134.32421875 C-44.67494375 104.880494 -39.57982633 69.44334391 -28 41 C-27.02141524 39.32066988 -26.02390676 37.65208739 -25 36 C-24.53859619 34.82727539 -24.53859619 34.82727539 -24.06787109 33.63085938 C-22.34263707 29.38048858 -19.88635296 25.59384264 -17.5 21.6875 C-17.00113281 20.85154297 -16.50226563 20.01558594 -15.98828125 19.15429688 C-15.26705078 17.9699707 -15.26705078 17.9699707 -14.53125 16.76171875 C-13.87479492 15.678302 -13.87479492 15.678302 -13.20507812 14.57299805 C-12.80740234 14.05390869 -12.40972656 13.53481934 -12 13 C-11.34 13 -10.68 13 -10 13 C-9.7525 12.443125 -9.505 11.88625 -9.25 11.3125 C-7.77075182 8.57589087 -6.06532561 6.32349131 -4 4 C-3.34 4 -2.68 4 -2 4 C-1.34 2.68 -0.68 1.36 0 0 Z " fill="#F97C12" transform="translate(270,78)"/>
<path d="M0 0 C1.23878906 0.23976562 2.47757813 0.47953125 3.75390625 0.7265625 C10.28937566 2.10484226 16.01628947 4.07555222 22 7 C23.8952518 7.83465507 25.79110915 8.66793618 27.6875 9.5 C31.77961391 11.35432854 35.32911267 13.43037887 39 16 C39.99 16.33 40.98 16.66 42 17 C42 17.66 42 18.32 42 19 C42.804375 19.37125 42.804375 19.37125 43.625 19.75 C46.56424252 21.29696975 49.25754408 23.13014369 52 25 C51.57883128 29.91363507 49.43520797 31.6465827 46 35 C45.2575 36.485 45.2575 36.485 44.5 38 C42.77653948 41.44692104 40.77602216 43.32924834 38 46 C37.53271484 46.46100098 37.06542969 46.92200195 36.58398438 47.39697266 C29.84773219 54.02275752 23.18667146 59.54598965 14.97265625 64.28125 C12.93876404 65.45721921 10.94775692 66.70971604 9 68.0234375 C6.05429591 69.96422691 3.09961555 71.56638305 -0.0625 73.125 C-1.56490234 73.87136719 -1.56490234 73.87136719 -3.09765625 74.6328125 C-4.97569042 75.51748539 -6.87962578 76.34989287 -8.80859375 77.1171875 C-10.94019977 77.80964628 -10.94019977 77.80964628 -12 79 C-13.40876827 79.34637071 -14.82753854 79.65253669 -16.25 79.9375 C-18.83912768 80.48300803 -21.05865598 81.02492879 -23.5 82.0625 C-26.68449409 83.25668529 -29.73369726 83.4800516 -33.109375 83.75390625 C-35.00903861 83.80573168 -35.00903861 83.80573168 -36 85 C-57.33086675 89.1043943 -83.17413241 88.58642082 -103 79 C-104.59608746 78.43497055 -106.19931462 77.88918518 -107.8125 77.375 C-109.98321148 76.68007343 -111.96052408 76.01973796 -114 75 C-114 74.34 -114 73.68 -114 73 C-114.886875 72.9175 -115.77375 72.835 -116.6875 72.75 C-120.48995361 71.88906711 -122.06100333 70.49814717 -125 68 C-125.9075 67.566875 -126.815 67.13375 -127.75 66.6875 C-132.5478757 64.19629531 -137.16162116 60.83837884 -141 57 C-140.92902285 49.73667131 -138.62192178 46.55956513 -133.5625 41.5625 C-132.9221582 40.90854248 -132.28181641 40.25458496 -131.62207031 39.58081055 C-129.7663033 37.70106661 -127.88684361 35.84846535 -126 34 C-125.16855469 33.15953125 -124.33710938 32.3190625 -123.48046875 31.453125 C-90.72181536 0.01399705 -43.36880885 -8.70827007 0 0 Z " fill="#FA7E14" transform="translate(439,236)"/>
<path d="M0 0 C1.39992187 0.01184326 1.39992187 0.01184326 2.828125 0.02392578 C9.52673783 0.10661033 16.15956417 0.36407053 22.8125 1.1875 C23.94558594 1.3215625 25.07867187 1.455625 26.24609375 1.59375 C31.98992524 2.36215555 35.84623508 3.1940305 40.8125 6.1875 C43.06736115 6.81095126 45.34118763 7.36776107 47.625 7.875 C56.34736367 9.99030376 63.98875636 13.87298982 71.8125 18.1875 C72.40264893 18.51169922 72.99279785 18.83589844 73.60083008 19.16992188 C89.04297044 27.81187326 101.14729966 39.20400507 112.0703125 53.0078125 C113.77797292 55.22688365 113.77797292 55.22688365 115.8125 57.1875 C116.296875 59.51171875 116.296875 59.51171875 115.8125 62.1875 C113.90445176 64.07454771 112.23030352 65.48505823 110.0625 67 C109.52367187 67.40669922 108.98484375 67.81339844 108.4296875 68.23242188 C105.19508654 70.57947989 103.9360781 71.1875 99.8125 71.1875 C99.8125 71.8475 99.8125 72.5075 99.8125 73.1875 C89.15880096 79.21725653 78.89441104 83.83364214 66.8125 86.1875 C65.66652344 86.435 64.52054688 86.6825 63.33984375 86.9375 C26.96327214 94.63467894 -10.51599685 88.82837073 -42.140625 68.96484375 C-49.04963483 64.3793799 -55.15146022 58.84616817 -61.1875 53.1875 C-62.00089844 52.44371094 -62.81429687 51.69992187 -63.65234375 50.93359375 C-75.78103994 39.41016839 -75.78103994 39.41016839 -76.3984375 32.99609375 C-76.125 31.0625 -76.125 31.0625 -75.1875 28.1875 C-74.5275 28.1875 -73.8675 28.1875 -73.1875 28.1875 C-73.1875 27.5275 -73.1875 26.8675 -73.1875 26.1875 C-65.04763894 19.54816889 -54.93353278 14.04530464 -45.1875 10.1875 C-42.00894422 8.8988001 -42.00894422 8.8988001 -40.1875 6.1875 C-38.07373047 5.625 -38.07373047 5.625 -35.3046875 5.1875 C-34.30179688 5.0225 -33.29890625 4.8575 -32.265625 4.6875 C-30.68007812 4.44 -30.68007812 4.44 -29.0625 4.1875 C-21.24075534 2.99636794 -21.24075534 2.99636794 -13.58203125 1.07421875 C-9.00856289 -0.12046171 -4.70462838 -0.06853865 0 0 Z " fill="#FA7D11" transform="translate(134.1875,231.8125)"/>
<path d="M0 0 C1.875 0.0625 1.875 0.0625 4 1 C7.10098519 4.43257568 8.90144301 7.70208358 10.5625 12 C11.68317593 14.88068829 12.75027811 17.58596834 14.34765625 20.234375 C17.35670117 25.27079061 19.67411267 30.67562074 22.15234375 35.98828125 C24.55283034 41.09023286 27.10316292 46.03560836 29.88305664 50.94018555 C31.47227613 53.87094944 32.71623661 56.92526424 34 60 C35.27279742 62.66600378 36.60315894 65.30185871 37.9375 67.9375 C39.96484375 71.96484375 39.96484375 71.96484375 40.96826172 73.96826172 C41.67911208 75.36809529 42.40569743 76.76001228 43.14501953 78.14501953 C43.69391846 79.18891846 43.69391846 79.18891846 44.25390625 80.25390625 C44.58849854 80.87724854 44.92309082 81.50059082 45.26782227 82.14282227 C46 84 46 84 46 88 C46.66 88 47.32 88 48 88 C48.47179687 89.17755859 48.47179687 89.17755859 48.953125 90.37890625 C51.71430883 97.26906397 51.71430883 97.26906397 55.1875 103.8125 C57.14351581 107.25238986 58.06457523 110.18034884 59 114 C62.2467739 113.27946535 62.2467739 113.27946535 63.68359375 110.19140625 C64.27951151 108.98728897 64.86348029 107.77720893 65.4375 106.5625 C65.74896973 105.9228833 66.06043945 105.2832666 66.38134766 104.62426758 C68.03077079 101.19407038 69.53657044 97.75253357 70.875 94.1875 C72.9920114 88.61301146 75.86650435 83.45220156 78.73974609 78.23901367 C81.26875511 73.59779973 83.24567176 68.98834548 85 64 C85.66 64 86.32 64 87 64 C87.10054688 63.14277344 87.20109375 62.28554688 87.3046875 61.40234375 C88.06720732 57.67113719 89.35601101 54.92992524 91.125 51.5625 C91.76493821 50.32651168 92.40289551 49.0894961 93.0390625 47.8515625 C93.36551758 47.21766602 93.69197266 46.58376953 94.02832031 45.93066406 C95.6017556 42.80435094 97.04606433 39.62066301 98.5 36.4375 C100.70874338 31.62541751 103.06680062 26.95269715 105.625 22.3125 C108.44531844 17.190397 110.75770271 12.01258135 112.859375 6.55859375 C114.00811024 3.98180752 115.03383648 2.02820266 117 0 C118.32 0 119.64 0 121 0 C122.98459219 7.22391557 124.43257485 14.35257259 125.41015625 21.77734375 C125.83662207 24.94768912 126.33945422 28.09951173 126.87109375 31.25390625 C129.23767972 45.3475082 131.08069355 59.44537443 132.60498047 73.65136719 C132.72265778 74.71430748 132.72265778 74.71430748 132.8427124 75.79872131 C133.05643998 77.73010729 133.2630855 79.66227324 133.46923828 81.59448242 C133.98762401 84.92059213 134.8874744 87.83176338 136 91 C136.25054649 93.07669461 136.43920666 95.16188296 136.5625 97.25 C136.71536617 101.27628227 136.71536617 101.27628227 138 105 C138.25501348 106.75390173 138.46366464 108.51465769 138.6484375 110.27734375 C138.76703125 111.34919922 138.885625 112.42105469 139.0078125 113.52539062 C139.24877515 115.76454887 139.48588373 118.00412591 139.71875 120.24414062 C141.18873343 134.63414039 141.18873343 134.63414039 148 147 C152.86741517 149.11626747 157.29001235 149.33539098 162.5 149.3125 C163.23347656 149.32861328 163.96695313 149.34472656 164.72265625 149.36132812 C169.57203658 149.36566567 172.74075658 148.53373667 177 146 C177.66 145.67 178.32 145.34 179 145 C178.34 146.65 177.68 148.3 177 150 C179.9528472 151.4764236 182.68448983 151.22272939 185.9765625 151.31640625 C187.00443375 151.3475779 187.00443375 151.3475779 188.05307007 151.37937927 C190.24361069 151.44480185 192.43427189 151.50372554 194.625 151.5625 C196.1093875 151.60569218 197.59376278 151.6493067 199.078125 151.69335938 C202.71862084 151.80047553 206.35925251 151.90176362 210 152 C210 152.33 210 152.66 210 153 C178.98 153 147.96 153 116 153 C115 149 115 149 116 147 C116.66 147 117.32 147 118 147 C117.88361873 144.87451055 117.75637282 142.74961554 117.625 140.625 C117.55539062 139.44164062 117.48578125 138.25828125 117.4140625 137.0390625 C117.17737344 134.20439586 116.71877306 131.50571834 116.1171875 128.7265625 C114.39158972 120.48726409 113.5354355 112.09770923 112.5 103.75 C112.07460184 100.34874544 111.64698199 96.94777379 111.21875 93.546875 C111.11573578 92.72410065 111.01272156 91.90132629 110.90658569 91.05361938 C110.28604325 86.13331835 109.60774802 81.22630212 108.8828125 76.3203125 C108.14565306 71.25363919 107.61992146 66.23773547 107.375 61.125 C107.33632813 60.42503906 107.29765625 59.72507812 107.2578125 59.00390625 C107.1664328 57.3362268 107.08232433 55.66815099 107 54 C106.01 54 105.02 54 104 54 C103.72736328 55.03060547 103.72736328 55.03060547 103.44921875 56.08203125 C103.19785156 56.98308594 102.94648438 57.88414062 102.6875 58.8125 C102.44386719 59.70582031 102.20023438 60.59914063 101.94921875 61.51953125 C101 64 101 64 99.56396484 65.40161133 C97.81103179 67.19312751 97.02250226 68.76218943 96.02734375 71.0546875 C95.68509766 71.83457031 95.34285156 72.61445313 94.99023438 73.41796875 C94.64283203 74.22878906 94.29542969 75.03960937 93.9375 75.875 C93.58623047 76.67808594 93.23496094 77.48117187 92.87304688 78.30859375 C91.18545065 82.18145163 89.53751337 86.06460309 88 90 C87.34 90 86.68 90 86 90 C85.74863281 90.99644531 85.49726563 91.99289062 85.23828125 93.01953125 C84.04539993 97.18885569 82.19725644 100.85990642 80.1875 104.6875 C77.19577695 110.50778583 74.49516012 116.34989818 72.10546875 122.44921875 C70.57386928 125.98326277 68.55208429 129.12586653 66.5 132.375 C64.26032335 136.29443414 62.54097188 140.35515307 61.1328125 144.63671875 C60.23544155 147.236128 59.37731426 149.61810998 58 152 C54.75 153.125 54.75 153.125 52 153 C51.75765625 152.33613281 51.5153125 151.67226563 51.265625 150.98828125 C49.35387766 145.9515623 47.44411825 142.18214359 44 138 C44 136.68 44 135.36 44 134 C43.34 134 42.68 134 42 134 C41.49596232 132.70990357 40.99690074 131.41786211 40.5 130.125 C40.2215625 129.40570313 39.943125 128.68640625 39.65625 127.9453125 C39 126 39 126 39 124 C38.34 124 37.68 124 37 124 C35.23537317 120.91190305 35 119.76687864 35 116 C34.34 116 33.68 116 33 116 C32.01 112.7 31.02 109.4 30 106 C29.34 106 28.68 106 28 106 C27.61328125 105.0821875 27.2265625 104.164375 26.828125 103.21875 C22.24497965 92.13127288 22.24497965 92.13127288 16.5 81.625 C15.08690683 79.15208696 14.08869101 76.77632619 13.0625 74.125 C11.84981784 70.99804561 10.57650301 68.07815753 8.875 65.1875 C7 62 7 62 5.9375 59.125 C5.628125 58.42375 5.31875 57.7225 5 57 C4.01 56.67 3.02 56.34 2 56 C2.05220703 57.65322266 2.05220703 57.65322266 2.10546875 59.33984375 C2.13367494 60.8723802 2.16096752 62.40493366 2.1875 63.9375 C2.21263672 64.65357422 2.23777344 65.36964844 2.26367188 66.10742188 C2.34157592 72.20990512 1.3672494 78.00156411 0.24813843 83.97537231 C-1.31964596 92.46089782 -2.35341415 101.00032641 -3.36254883 109.56762695 C-3.68934841 112.3281136 -4.02888729 115.08684618 -4.36914062 117.84570312 C-5.46428533 126.92590909 -6.39267948 135.83394115 -6 145 C-1.70543612 147.30440013 2.31479085 148.78184562 7 150 C7 150.66 7 151.32 7 152 C-2.56720221 153.16104917 -12.0701808 153.11587919 -21.6875 153.0625 C-23.27538921 153.05747247 -24.86327996 153.05291179 -26.45117188 153.04882812 C-30.30082025 153.03792755 -34.15039253 153.02073283 -38 153 C-37.67 152.01 -37.34 151.02 -37 150 C-35.00099583 149.54121216 -33.00171515 149.08353017 -31 148.63671875 C-27.73229097 147.59641295 -26.68225296 145.92836627 -25 143 C-22.54620291 136.86276254 -21.26991027 130.7132566 -20.375 124.1875 C-20.18671631 122.88244507 -20.18671631 122.88244507 -19.99462891 121.55102539 C-19.18402747 115.7852613 -18.5612752 110.02878134 -18.2109375 104.21484375 C-18 102 -18 102 -17 99 C-16.73330284 96.26529583 -16.5564078 93.53089492 -16.37890625 90.7890625 C-16 88 -16 88 -15.0546875 85.8762207 C-13.64357767 82.02800661 -13.22729101 78.24756538 -12.74609375 74.19140625 C-12.64031509 73.34706528 -12.53453644 72.5027243 -12.42555237 71.63279724 C-12.08986209 68.94343938 -11.76337344 66.25306335 -11.4375 63.5625 C-11.10614759 60.87577421 -10.77290304 58.1892915 -10.43873596 55.50291443 C-10.23187517 53.83476209 -10.02697153 52.16636552 -9.82432556 50.49769592 C-9.3117707 46.3116152 -8.73176389 42.15497284 -8 38 C-7.34 38 -6.68 38 -6 38 C-6.02320313 37.46375 -6.04640625 36.9275 -6.0703125 36.375 C-6.32495287 25.3163327 -5.27945166 12.61266997 -2 2 C-1.34 1.34 -0.68 0.68 0 0 Z " fill="#F4F5F5" transform="translate(220,332)"/>
<path d="M0 0 C5.32562399 0.06771371 10.28737608 1.34706658 15.42578125 2.65234375 C16.83633789 2.99749023 16.83633789 2.99749023 18.27539062 3.34960938 C21.76647333 4.21052684 25.20086802 5.07737267 28.61328125 6.21484375 C28.61328125 6.87484375 28.61328125 7.53484375 28.61328125 8.21484375 C29.50015625 8.15296875 30.38703125 8.09109375 31.30078125 8.02734375 C35.09248962 8.24196875 36.45998026 9.18772169 39.61328125 11.21484375 C40.93788062 11.71765086 42.27221197 12.19527519 43.61328125 12.65234375 C47.21354518 13.93379362 49.69896414 15.71685766 52.61328125 18.21484375 C53.60328125 18.54484375 54.59328125 18.87484375 55.61328125 19.21484375 C55.61328125 19.87484375 55.61328125 20.53484375 55.61328125 21.21484375 C56.50015625 21.44171875 57.38703125 21.66859375 58.30078125 21.90234375 C62.11113926 23.41210824 63.88278631 25.19692828 66.61328125 28.21484375 C68.79010411 30.52771804 70.54383513 32.1744681 73.30078125 33.77734375 C75.61328125 35.21484375 75.61328125 35.21484375 76.61328125 38.21484375 C76.74163586 40.44182337 76.81538046 42.67210214 76.859375 44.90234375 C76.89236197 46.25521362 76.92557266 47.60807805 76.95898438 48.9609375 C77.00597232 51.07563868 77.05032022 53.19032616 77.09008789 55.30517578 C77.24211114 63.02285912 77.57120642 70.50507231 79.19555664 78.078125 C79.61328125 80.21484375 79.61328125 80.21484375 79.61328125 83.21484375 C80.27328125 83.21484375 80.93328125 83.21484375 81.61328125 83.21484375 C81.74605469 83.85292969 81.87882812 84.49101562 82.015625 85.1484375 C82.28052734 86.38787109 82.28052734 86.38787109 82.55078125 87.65234375 C82.81181641 88.88791016 82.81181641 88.88791016 83.078125 90.1484375 C83.42081119 92.19145579 83.42081119 92.19145579 84.61328125 93.21484375 C84.74582414 94.58739906 84.84412328 95.96332362 84.92578125 97.33984375 C85.25017238 100.7007486 85.81403345 102.9818328 87.61328125 105.83984375 C89.85880436 109.62916399 90.26174769 111.9085576 90.61328125 116.21484375 C91.27328125 116.21484375 91.93328125 116.21484375 92.61328125 116.21484375 C93.45988465 117.6026686 94.29003464 119.00053772 95.11328125 120.40234375 C95.57734375 121.17964844 96.04140625 121.95695312 96.51953125 122.7578125 C97.72057772 125.45587761 97.82069168 127.29554195 97.61328125 130.21484375 C93.62791202 129.68022105 91.51897293 128.63742613 88.48828125 126.02734375 C83.54743526 122.01032873 78.27265498 119.09742196 72.61328125 116.21484375 C71.52015625 115.65796875 70.42703125 115.10109375 69.30078125 114.52734375 C68.41390625 114.09421875 67.52703125 113.66109375 66.61328125 113.21484375 C65.70578125 112.71984375 64.79828125 112.22484375 63.86328125 111.71484375 C60.31564113 110.07747139 56.79283108 109.03305379 53.04296875 107.96484375 C50.61328125 107.21484375 50.61328125 107.21484375 47.30078125 105.71484375 C40.91774597 103.11835482 34.09902006 101.90364244 27.3515625 100.5703125 C20.91721088 99.18979289 15.82418625 97.53778352 11.61328125 92.21484375 C11.61328125 91.55484375 11.61328125 90.89484375 11.61328125 90.21484375 C10.95328125 90.21484375 10.29328125 90.21484375 9.61328125 90.21484375 C9.38640625 89.55484375 9.15953125 88.89484375 8.92578125 88.21484375 C7.82577153 85.70053582 6.70599979 83.82986245 5.17578125 81.58984375 C2.58128731 77.55396428 1.48147304 73.61857649 0.359375 68.984375 C-0.35147374 66.34567471 -1.27683076 64.01935641 -2.38671875 61.52734375 C-7.14424465 49.70672171 -7.676226 37.94606611 -7.76171875 25.33984375 C-7.77557617 24.10387451 -7.78943359 22.86790527 -7.80371094 21.59448242 C-7.69558296 0.48818577 -7.69558296 0.48818577 0 0 Z " fill="#8EC23D" transform="translate(144.38671875,125.78515625)"/>
<path d="M0 0 C7.36192115 14.7238423 5.40194774 37.24552544 2 53 C1.01939031 55.00957822 0.01814889 57.00917785 -1 59 C-1.90218008 61.76203216 -2.62842598 64.56750919 -3.375 67.375 C-5.13328227 73.69536668 -7.16579385 78.61138595 -11 84 C-11.4640625 85.2684375 -11.4640625 85.2684375 -11.9375 86.5625 C-13.9151914 91.09955673 -17.1178376 94.93826737 -21.4375 97.375 C-24 98 -24 98 -27.5625 98.5 C-30.82023289 98.78165584 -30.82023289 98.78165584 -32.796875 99.93359375 C-35.68434342 101.33125134 -38.55427149 101.89234698 -41.6875 102.5625 C-45.66023405 103.12199479 -45.66023405 103.12199479 -49 105 C-50.0725 105.12375 -51.145 105.2475 -52.25 105.375 C-55.90405023 105.74753642 -55.90405023 105.74753642 -58.328125 107.40234375 C-61.31710224 109.1896123 -64.18351181 110.13398254 -67.5 111.1875 C-78.31686329 114.96661333 -87.3279548 121.06069185 -95.9765625 128.53125 C-98 130 -98 130 -101 130 C-101.35549804 125.73402357 -100.5222015 124.32416363 -98 121 C-97.30077905 119.46065046 -96.65642794 117.89545816 -96.0625 116.3125 C-94.45885017 112.13684256 -92.71146833 108.06619854 -90.83203125 104.0078125 C-90.00916529 102.02211717 -89.46515689 100.0955553 -89 98 C-88.34 98 -87.68 98 -87 98 C-86.8865625 97.11054688 -86.773125 96.22109375 -86.65625 95.3046875 C-86.16744919 91.86759169 -85.51944758 88.47536085 -84.84375 85.0703125 C-82.28528493 71.96706586 -80.42638011 59.27849527 -80.27734375 45.90869141 C-80.25800781 44.455354 -80.25800781 44.455354 -80.23828125 42.97265625 C-80.23868408 42.12968994 -80.23908691 41.28672363 -80.23950195 40.41821289 C-79.87928635 36.78117364 -79.0114208 34.02482123 -76.4152832 31.39428711 C-75.79999756 30.9431958 -75.18471191 30.49210449 -74.55078125 30.02734375 C-73.52500977 29.26647461 -73.52500977 29.26647461 -72.47851562 28.49023438 C-71.76373047 27.97783203 -71.04894531 27.46542969 -70.3125 26.9375 C-69.61705078 26.42123047 -68.92160156 25.90496094 -68.20507812 25.37304688 C-63.94701815 22.25205987 -59.62957385 19.53447735 -55 17 C-53.95199219 16.4121875 -52.90398437 15.824375 -51.82421875 15.21875 C-45.34432367 11.66812256 -38.92514925 8.56531616 -32 6 C-31.37222656 5.73574219 -30.74445313 5.47148437 -30.09765625 5.19921875 C-20.57018748 1.27140393 -10.28264298 -0.6397036 0 0 Z " fill="#8EC23E" transform="translate(410,126)"/>
<path d="M0 0 C0.69351563 0.11448486 1.38703125 0.22896973 2.1015625 0.34692383 C6.7535546 1.1910546 6.7535546 1.1910546 9 3.4375 C8.99633789 5.55786133 8.99633789 5.55786133 8.66015625 8.20703125 C7.92458464 14.84234215 7.66593616 21.45541324 7.4375 28.125 C7.37272461 29.91067383 7.37272461 29.91067383 7.30664062 31.73242188 C7.20176321 34.63403034 7.09959804 37.53570635 7 40.4375 C5.35 40.1075 3.7 39.7775 2 39.4375 C1.95101562 38.71304688 1.90203125 37.98859375 1.8515625 37.2421875 C1.44793848 32.02291133 0.98724193 27.33936342 -1 22.4375 C-1.66 22.4375 -2.32 22.4375 -3 22.4375 C-3.763125 21.385625 -4.52625 20.33375 -5.3125 19.25 C-9.66756844 13.97919589 -15.66876104 12.45874061 -22 10.4375 C-22.95390625 10.128125 -23.9078125 9.81875 -24.890625 9.5 C-40.59392451 4.61034985 -58.72386248 4.5629701 -73.75 11.9375 C-87.70982528 20.40493501 -94.57287056 32.34311866 -98.375 47.8125 C-103.1271973 69.81806369 -100.30633592 91.69301594 -88.48046875 110.90625 C-79.92687423 123.88688055 -68.20224927 134.18402093 -53 138.4375 C-47.06606748 139.5750182 -41.20675601 139.62089689 -35.1875 139.625 C-34.25357422 139.63724609 -33.31964844 139.64949219 -32.35742188 139.66210938 C-23.30393781 139.68095771 -15.34755753 138.93111461 -7.7890625 133.65625 C-6 132.4375 -6 132.4375 -3.8359375 131.4140625 C-1.15101236 129.98591083 -0.99047437 128.2851138 0 125.4375 C1.00375639 123.40983146 2.04637693 121.4057251 3.09765625 119.40234375 C4.00422907 117.42829124 4.54224948 115.55636583 5 113.4375 C6.32 113.4375 7.64 113.4375 9 113.4375 C9.40876866 123.86110084 8.78937196 138.41216108 2.0625 146.875 C-8.97777997 152.5077959 -21.17232434 151.99620293 -33.25952148 151.9934082 C-36.40019685 151.99992263 -39.5376223 152.0543965 -42.67773438 152.11132812 C-67.09665364 152.3123459 -88.59272692 145.87476906 -106.66796875 128.9375 C-123.52922084 111.37042806 -128.93597764 92.3282443 -128.73730469 68.41455078 C-128.44521301 54.71911972 -125.49221411 42.08788592 -117.16455078 31.0144043 C-115.86025852 29.30212085 -115.86025852 29.30212085 -114.41015625 26.7734375 C-105.14111619 11.41918278 -87.31846404 2.57683773 -70.48828125 -1.78515625 C-46.93836007 -7.03312301 -23.53627559 -3.97690797 0 0 Z " fill="#F5F6F6" transform="translate(175,335.5625)"/>
<path d="M0 0 C3.54285931 -0.07300407 7.08552321 -0.11716292 10.62890625 -0.15625 C11.62845337 -0.17719727 12.62800049 -0.19814453 13.65783691 -0.21972656 C21.22872693 -0.28238653 26.36459416 0.63074269 32 6 C32.65871094 6.556875 33.31742187 7.11375 33.99609375 7.6875 C40.85819138 14.30707027 43.10444345 24.13967142 43.4375 33.4375 C42.99349265 43.4276654 41.70446245 53.28986819 35 61 C34.38125 62.36125 34.38125 62.36125 33.75 63.75 C30.88982682 67.42736551 27.49856168 68.22163851 23 69 C15.5872333 69.43280485 8.32357945 69.29131124 1 68 C0 67 0 67 -0.12025452 64.33616638 C-0.11803391 63.14813919 -0.11581329 61.960112 -0.11352539 60.73608398 C-0.11367142 60.08244873 -0.11381744 59.42881348 -0.1139679 58.75537109 C-0.11326883 56.58557872 -0.10547678 54.41587121 -0.09765625 52.24609375 C-0.09579205 50.74536689 -0.09436816 49.24463943 -0.09336853 47.74391174 C-0.08954352 43.78681774 -0.0797134 39.82976022 -0.06866455 35.87268066 C-0.05845006 31.83765151 -0.05387083 27.80261647 -0.04882812 23.76757812 C-0.03809111 15.84503531 -0.0210149 7.92252219 0 0 Z " fill="#020202" transform="translate(425,345)"/>
<path d="M0 0 C5.3673745 3.96718985 8.07507273 9.71824146 10 16 C11.08030847 24.41025192 10.67768747 33.90705068 5.55859375 40.99609375 C-0.44887698 47.47747168 -7.82821084 51.52664744 -16.6484375 52.203125 C-24.02674161 52.32997264 -28.89802178 51.7993462 -34.5625 46.6875 C-35.366875 45.800625 -36.17125 44.91375 -37 44 C-37.495 43.56945312 -37.99 43.13890625 -38.5 42.6953125 C-43.92177383 37.89704266 -46.45769366 32.19457356 -47.3828125 25.0390625 C-47.69460171 16.95332889 -46.41328619 9.9363438 -41.01171875 3.70703125 C-29.43223353 -7.27248064 -13.69528209 -8.59546551 0 0 Z " fill="#8DC23D" transform="translate(294,306)"/>
<path d="M0 0 C0.96808594 -0.00257813 1.93617188 -0.00515625 2.93359375 -0.0078125 C5.5625 0.125 5.5625 0.125 8.5625 1.125 C13.50985289 6.65439441 13.9086258 10.96004878 13.84765625 18.171875 C13.46720235 22.11191815 12.23079269 24.23434959 9.5625 27.125 C9.005625 27.74375 8.44875 28.3625 7.875 29 C4.17666024 30.79919232 0.59253258 30.65222648 -3.4375 30.125 C-8.15112305 28.1348036 -11.15922827 24.68154346 -13.4375 20.125 C-14.23192259 14.15174662 -14.24992367 9.45245223 -10.5625 4.5 C-7.19121856 0.50983597 -5.19543932 -0.01379931 0 0 Z " fill="#E5E5E5" transform="translate(253.4375,527.875)"/>
<path d="M0 0 C3.80176483 1.62836653 6.22184708 3.78202151 8.4375 7.25 C9.52171707 12.5506168 9.65070049 17.18488812 7.8125 22.3125 C5.782325 25.32275948 4.01692137 26.97887366 1 29 C-3.83437425 29.92140301 -9.66740672 30.55506219 -13.921875 27.71875 C-18.91472454 21.72733056 -18.67180381 15.47154783 -18 8 C-14.89373685 -0.35000442 -7.88786601 -1.07811837 0 0 Z " fill="#E6E6E6" transform="translate(516,528)"/>
<path d="M0 0 C3.91075925 1.98968453 5.57689098 3.36533646 8 7 C8.30078125 10.14453125 8.30078125 10.14453125 8.3125 13.8125 C8.32925781 15.01519531 8.34601563 16.21789062 8.36328125 17.45703125 C7.96364499 21.3545591 7.12219371 23.71850409 5 27 C0.97039394 30.03322644 -4.08070045 29.51522783 -8.91796875 29.4609375 C-12.16076574 28.97595645 -13.20041162 28.6038532 -15.25 26.125 C-17.65242454 21.83495618 -18.18283294 19.62987603 -18.25 14.6875 C-18.27578125 13.55699219 -18.3015625 12.42648437 -18.328125 11.26171875 C-17.87555906 6.76299776 -16.36956496 4.32044554 -13.1484375 1.21484375 C-9.05568909 -1.09941944 -4.54625536 -0.60529015 0 0 Z " fill="#EAEAEA" transform="translate(461,528)"/>
<path d="M0 0 C3.80634156 1.83520039 5.4868474 2.97369479 7.375 6.75 C7.58125 7.4925 7.7875 8.235 8 9 C6.02 9 4.04 9 2 9 C2 8.34 2 7.68 2 7 C-1.55353929 5.8154869 -4.27013478 5.73358106 -8 6 C-9.80243181 7.10911971 -9.80243181 7.10911971 -11 9 C-11.47578317 11.60115544 -11.47578317 11.60115544 -11.375 14.4375 C-11.38273438 15.38496094 -11.39046875 16.33242188 -11.3984375 17.30859375 C-10.9403465 20.40295356 -10.19279289 21.7917649 -8 24 C-3.91834173 24.51020728 -2.47042703 24.31361802 1 22 C1.33 21.01 1.66 20.02 2 19 C0.02 19 -1.96 19 -4 19 C-4 17.02 -4 15.04 -4 13 C-0.04 13 3.92 13 8 13 C8 18.28 8 23.56 8 29 C6.68 29 5.36 29 4 29 C3.67 28.34 3.34 27.68 3 27 C2.154375 27.495 1.30875 27.99 0.4375 28.5 C-3.54883337 30.23949093 -5.6988098 30.67913529 -10 30 C-13.81645899 27.58720883 -16.55710229 25.32869314 -18 21 C-19.1568041 10.16411351 -19.1568041 10.16411351 -16.73046875 5.625 C-11.78949648 -0.14547857 -7.45477468 -0.82322665 0 0 Z " fill="#E4E4E4" transform="translate(546,528)"/>
<path d="M0 0 C2.31 0 4.62 0 7 0 C10.3 5.94 13.6 11.88 17 18 C17.33 12.39 17.66 6.78 18 1 C19.65 1 21.3 1 23 1 C23 10.24 23 19.48 23 29 C21.02 29 19.04 29 17 29 C13.7 23.06 10.4 17.12 7 11 C6.67 16.94 6.34 22.88 6 29 C4.02 29 2.04 29 0 29 C0 19.43 0 9.86 0 0 Z " fill="#E9E9E9" transform="translate(36,528)"/>
<path d="M0 0 C2.31 0 4.62 0 7 0 C10.3 5.94 13.6 11.88 17 18 C17.33 12.06 17.66 6.12 18 0 C19.65 0 21.3 0 23 0 C23 9.24 23 18.48 23 28 C17 28 17 28 15.50854492 26.65478516 C15.16927979 26.03909668 14.83001465 25.4234082 14.48046875 24.7890625 C14.09826172 24.12132812 13.71605469 23.45359375 13.32226562 22.765625 C12.94779297 22.05921875 12.57332031 21.3528125 12.1875 20.625 C11.79369141 19.92632813 11.39988281 19.22765625 10.99414062 18.5078125 C9.60685432 16.03306505 8.26882385 13.5376477 7 11 C6.67 16.61 6.34 22.22 6 28 C4.02 28 2.04 28 0 28 C0 18.76 0 9.52 0 0 Z " fill="#EBEBEB" transform="translate(415,529)"/>
<path d="M0 0 C6.93 0 13.86 0 21 0 C21 1.98 21 3.96 21 6 C16.05 6 11.1 6 6 6 C6 7.98 6 9.96 6 12 C10.62 12 15.24 12 20 12 C20 13.65 20 15.3 20 17 C15.05 17 10.1 17 5 17 C5 19.31 5 21.62 5 24 C10.28 24 15.56 24 21 24 C21 25.65 21 27.3 21 29 C14.07 29 7.14 29 0 29 C0 19.43 0 9.86 0 0 Z " fill="#E1E1E1" transform="translate(332,528)"/>
<path d="M0 0 C2.625 1.5625 2.625 1.5625 3.625 2.5625 C3.66563832 4.22867115 3.667721 5.89638095 3.625 7.5625 C1.25 7.75 1.25 7.75 -1.375 7.5625 C-2.035 6.5725 -2.695 5.5825 -3.375 4.5625 C-6.95857241 4.31234127 -6.95857241 4.31234127 -10.375 4.5625 C-10.705 5.8825 -11.035 7.2025 -11.375 8.5625 C-10.56675781 8.73265625 -9.75851563 8.9028125 -8.92578125 9.078125 C2.7157946 11.71819286 2.7157946 11.71819286 5.625 15.5625 C6.20883318 18.90627185 6.46632669 20.43845605 5.625 23.5625 C2.87664183 27.12793763 1.36645155 28.27480406 -3.046875 29.00390625 C-7.48041915 29.1896358 -10.52955387 29.00213199 -14.5 26.9375 C-16.72752176 24.11597244 -17.13284048 22.11417293 -17.375 18.5625 C-15.0625 18.3125 -15.0625 18.3125 -12.375 18.5625 C-11.900625 19.2225 -11.42625 19.8825 -10.9375 20.5625 C-10.1640625 21.5525 -10.1640625 21.5525 -9.375 22.5625 C-6.24876745 22.88150332 -4.20383747 22.97691874 -1.375 21.5625 C-1.705 20.2425 -2.035 18.9225 -2.375 17.5625 C-3.12265625 17.39234375 -3.8703125 17.2221875 -4.640625 17.046875 C-5.62546875 16.80453125 -6.6103125 16.5621875 -7.625 16.3125 C-8.59953125 16.08046875 -9.5740625 15.8484375 -10.578125 15.609375 C-13.75229031 14.4212796 -15.27904129 13.20693389 -17.375 10.5625 C-17.875 7.0625 -17.875 7.0625 -17.375 3.5625 C-12.89531943 -2.30742626 -6.59363159 -2.80839864 0 0 Z " fill="#E5E5E5" transform="translate(81.375,529.4375)"/>
<path d="M0 0 C1.98 0 3.96 0 6 0 C6 7.59 6 15.18 6 23 C13.16794971 24.64715023 13.16794971 24.64715023 16 23 C16.33 15.74 16.66 8.48 17 1 C18.98 1 20.96 1 23 1 C23.08767555 4.37483413 23.14061628 7.74937215 23.1875 11.125 C23.21263672 12.07632813 23.23777344 13.02765625 23.26367188 14.0078125 C23.31972485 19.38889839 23.21279858 23.431685 20 28 C16.83800849 29.05399717 14.38539814 29.23445913 11.0625 29.3125 C10.02222656 29.34988281 8.98195312 29.38726563 7.91015625 29.42578125 C4.31539936 28.89983695 3.23400613 27.79380349 1 25 C-0.27861615 22.44276771 -0.11336609 20.63262898 -0.09765625 17.7734375 C-0.09443359 16.7421875 -0.09121094 15.7109375 -0.08789062 14.6484375 C-0.07951172 13.56820312 -0.07113281 12.48796875 -0.0625 11.375 C-0.05798828 10.28703125 -0.05347656 9.1990625 -0.04882812 8.078125 C-0.03701776 5.38536211 -0.02054778 2.69270812 0 0 Z " fill="#E8E8E8" transform="translate(151,528)"/>
<path d="M0 0 C3.5625 1.625 3.5625 1.625 6 4 C6.875 7.25 6.875 7.25 7 10 C5.02 10 3.04 10 1 10 C1 9.01 1 8.02 1 7 C-0.45635371 6.77825067 -1.91522956 6.57301302 -3.375 6.375 C-4.18710937 6.25898437 -4.99921875 6.14296875 -5.8359375 6.0234375 C-6.55007813 6.01570312 -7.26421875 6.00796875 -8 6 C-10.30463182 7.87765778 -10.30463182 7.87765778 -10.265625 10.93359375 C-10.25789063 12.66802734 -10.25789063 12.66802734 -10.25 14.4375 C-10.25515625 15.59121094 -10.2603125 16.74492188 -10.265625 17.93359375 C-10.23269053 21.17185674 -10.23269053 21.17185674 -8 24 C-5.04253508 24.58345476 -5.04253508 24.58345476 -2 24 C-1.505 23.34 -1.01 22.68 -0.5 22 C-0.005 21.34 0.49 20.68 1 20 C4.1875 19.75 4.1875 19.75 7 20 C6.15060066 23.39759737 5.26870488 25.68091295 3 28.375 C-1.32843783 30.71957049 -5.18254742 30.92063344 -10 30 C-12.9375 27.8125 -12.9375 27.8125 -15 25 C-15.8971875 23.9171875 -15.8971875 23.9171875 -16.8125 22.8125 C-19.07408384 17.45611721 -18.72009393 12.04658276 -16.8125 6.625 C-12.23860726 0.00074156 -7.77811223 -1.21765974 0 0 Z " fill="#E2E2E2" transform="translate(374,528)"/>
<path d="M0 0 C6.6 0 13.2 0 20 0 C20 1.32 20 2.64 20 4 C15.05 4 10.1 4 5 4 C5 6.31 5 8.62 5 11 C9.62 11 14.24 11 19 11 C19 12.65 19 14.3 19 16 C14.38 16 9.76 16 5 16 C5 18.31 5 20.62 5 23 C9.95 23 14.9 23 20 23 C20 24.65 20 26.3 20 28 C13.4 28 6.8 28 0 28 C0 18.76 0 9.52 0 0 Z " fill="#F2F2F2" transform="translate(205,529)"/>
<path d="M0 0 C1.65 0 3.3 0 5 0 C5 3.63 5 7.26 5 11 C8.96 11 12.92 11 17 11 C17 7.37 17 3.74 17 0 C18.65 0 20.3 0 22 0 C22 9.24 22 18.48 22 28 C20.35 28 18.7 28 17 28 C17 23.71 17 19.42 17 15 C13.04 15 9.08 15 5 15 C5 19.29 5 23.58 5 28 C3.35 28 1.7 28 0 28 C0 18.76 0 9.52 0 0 Z " fill="#F9F9F9" transform="translate(387,529)"/>
<path d="M0 0 C6.6 0 13.2 0 20 0 C20 1.65 20 3.3 20 5 C15.38 5 10.76 5 6 5 C6 7.31 6 9.62 6 12 C9.96 12 13.92 12 18 12 C18 13.65 18 15.3 18 17 C14.04 17 10.08 17 6 17 C6 20.96 6 24.92 6 29 C4.02 29 2.04 29 0 29 C0 19.43 0 9.86 0 0 Z " fill="#E1E1E1" transform="translate(272,528)"/>
<path d="M0 0 C2.31 0 4.62 0 7 0 C7.67119549 1.4562545 8.33681807 2.91507867 9 4.375 C9.556875 5.59316406 9.556875 5.59316406 10.125 6.8359375 C11 9 11 9 11 11 C11.66 11 12.32 11 13 11 C13.1546875 10.2265625 13.1546875 10.2265625 13.3125 9.4375 C14.24263866 6.13973565 15.61395512 3.13366668 17 0 C19.31 0 21.62 0 24 0 C22.85657478 2.31371943 21.71038936 4.62599677 20.5625 6.9375 C20.23701172 7.59685547 19.91152344 8.25621094 19.57617188 8.93554688 C17.11328125 13.88671875 17.11328125 13.88671875 16 15 C15.76518307 17.18292774 15.58636677 19.37203174 15.4375 21.5625 C15.35371094 22.76003906 15.26992188 23.95757813 15.18359375 25.19140625 C15.12300781 26.11824219 15.06242188 27.04507813 15 28 C13.02 28 11.04 28 9 28 C9.020625 27.29617188 9.04125 26.59234375 9.0625 25.8671875 C8.88333797 17.28980543 6.16954501 11.89055708 1.71484375 4.8359375 C0 2 0 2 0 0 Z " fill="#EAEAEA" transform="translate(559,529)"/>
<path d="M0 0 C4.07865638 0.65549835 5.01316289 1.35212193 7.5 4.5625 C8.03125 7.4375 8.03125 7.4375 8 10.5625 C8.0103125 11.59375 8.020625 12.625 8.03125 13.6875 C7.37935088 17.21542466 6.31016371 18.39495086 3.5 20.5625 C-0.46139166 21.32106436 -1.98818314 20.8962936 -5.375 18.6875 C-8.35297558 14.30812415 -8.3946994 10.71124184 -7.5 5.5625 C-5.45860682 1.47971364 -4.51756452 0.72603715 0 0 Z " fill="#060606" transform="translate(253.5,532.4375)"/>
<path d="M0 0 C3.64014984 0.44703594 5.05600295 0.83459921 7.5625 3.4375 C8.91848277 7.50544832 9.21732606 11.18857184 8.5625 15.4375 C6.10819464 18.97458713 4.72151156 20.20096703 0.5 21.0625 C-2.4375 20.4375 -2.4375 20.4375 -4.8125 18.625 C-7.15692428 14.02632161 -7.27663428 9.51010455 -6.4375 4.4375 C-4.47403097 0.97805456 -4.08112556 0.51941598 0 0 Z " fill="#0D0D0D" transform="translate(455.4375,532.5625)"/>
<path d="M0 0 C3.76762547 0.46269085 4.97722936 0.75730581 7.5625 3.4375 C8.09375 6.43359375 8.09375 6.43359375 8.0625 9.875 C8.0728125 11.00808594 8.083125 12.14117188 8.09375 13.30859375 C7.46380127 17.01880651 6.53756937 18.20080835 3.5625 20.4375 C0.5625 20.9375 0.5625 20.9375 -2.4375 20.4375 C-5.26231599 18.27163747 -6.32156012 17.10940356 -6.93359375 13.5625 C-6.91425781 12.53125 -6.89492188 11.5 -6.875 10.4375 C-6.87371094 9.40625 -6.87242187 8.375 -6.87109375 7.3125 C-6.14681954 2.51010521 -4.87244107 0.62012886 0 0 Z " fill="#0A0A0A" transform="translate(510.4375,532.5625)"/>
<path d="M0 0 C1.98 0 3.96 0 6 0 C6 7.92 6 15.84 6 24 C10.62 24 15.24 24 20 24 C20 25.65 20 27.3 20 29 C13.4 29 6.8 29 0 29 C0 19.43 0 9.86 0 0 Z " fill="#E3E3E3" transform="translate(474,528)"/>
<path d="M0 0 C7.59 0 15.18 0 23 0 C23 1.32 23 2.64 23 4 C20.03 4 17.06 4 14 4 C14 11.92 14 19.84 14 28 C12.02 28 10.04 28 8 28 C8 20.41 8 12.82 8 5 C5.36 5 2.72 5 0 5 C0 3.35 0 1.7 0 0 Z " fill="#E7E7E7" transform="translate(305,529)"/>
<path d="M0 0 C7.59 0 15.18 0 23 0 C23 1.65 23 3.3 23 5 C20.36 5 17.72 5 15 5 C15 12.59 15 20.18 15 28 C13.02 28 11.04 28 9 28 C9 20.08 9 12.16 9 4 C6.03 4 3.06 4 0 4 C0 2.68 0 1.36 0 0 Z " fill="#E8E8E8" transform="translate(89,529)"/>
<path d="M0 0 C7.26 0 14.52 0 22 0 C22 1.65 22 3.3 22 5 C19.36 5 16.72 5 14 5 C14 12.59 14 20.18 14 28 C12.02 28 10.04 28 8 28 C8 20.08 8 12.16 8 4 C5.36 4 2.72 4 0 4 C0 2.68 0 1.36 0 0 Z " fill="#E9E9E9" transform="translate(178,529)"/>
<path d="M0 0 C7.26 0 14.52 0 22 0 C22 1.32 22 2.64 22 4 C19.36 4 16.72 4 14 4 C14 11.92 14 19.84 14 28 C12.02 28 10.04 28 8 28 C8 20.08 8 12.16 8 4 C5.36 4 2.72 4 0 4 C0 2.68 0 1.36 0 0 Z " fill="#F0F0F0" transform="translate(125,529)"/>
<path d="M0 0 C7.26 0 14.52 0 22 0 C22 0.33 22 0.66 22 1 C15.4 1 8.8 1 2 1 C2.33 22.12 2.66 43.24 3 65 C8.30809436 66.76936479 11.65088477 67.1823533 17 66.75 C18.02867187 66.69005859 18.02867187 66.69005859 19.078125 66.62890625 C24.76137874 66.2276078 29.24933498 65.16711001 34 62 C33.07217284 64.27953474 32.46742442 65.70102686 30.36328125 67.046875 C20.96424607 70.26940135 10.68398776 69.70750414 1 68 C0 67 0 67 -0.12025452 64.33616638 C-0.11803391 63.14813919 -0.11581329 61.960112 -0.11352539 60.73608398 C-0.11367142 60.08244873 -0.11381744 59.42881348 -0.1139679 58.75537109 C-0.11326883 56.58557872 -0.10547678 54.41587121 -0.09765625 52.24609375 C-0.09579205 50.74536689 -0.09436816 49.24463943 -0.09336853 47.74391174 C-0.08954352 43.78681774 -0.0797134 39.82976022 -0.06866455 35.87268066 C-0.05845006 31.83765151 -0.05387083 27.80261647 -0.04882812 23.76757812 C-0.0380911 15.84503344 -0.02049445 7.92252546 0 0 Z " fill="#414343" transform="translate(425,345)"/>
<path d="M0 0 C1.98 0 3.96 0 6 0 C6 9.24 6 18.48 6 28 C4.02 28 2.04 28 0 28 C0 18.76 0 9.52 0 0 Z " fill="#E8E8E8" transform="translate(25,529)"/>
<path d="M0 0 C5.52677733 -0.19392201 9.75614911 0.2520497 15 2 C15 2.99 15 3.98 15 5 C12.31430335 6.34284832 10.18918142 6.16949626 7.18139648 6.22119141 C5.95116257 6.244319 4.72092865 6.26744659 3.45341492 6.29127502 C2.09264508 6.31163202 0.73187119 6.33171987 -0.62890625 6.3515625 C-2.04050577 6.37513096 -3.4521014 6.39893411 -4.86369324 6.42295837 C-8.64810259 6.48538443 -12.43258507 6.54011901 -16.21714783 6.59233475 C-18.55343792 6.62487379 -20.88969427 6.65929294 -23.22595215 6.69406128 C-47.50494446 7.0494195 -71.73326541 6.97322935 -96 6 C-96 5.67 -96 5.34 -96 5 C-60.69 4.67 -25.38 4.34 11 4 C11 3.34 11 2.68 11 2 C7.37 1.67 3.74 1.34 0 1 C0 0.67 0 0.34 0 0 Z " fill="#181B1C" transform="translate(432,480)"/>
<path d="M0 0 C0.33 0 0.66 0 1 0 C7.2406639 36.5186722 7.2406639 36.5186722 4 43 C3.76701769 46.26545049 3.60671175 49.52397623 3.48242188 52.79492188 C3.2501284 57.48900315 2.44865967 61.52499059 1 66 C0.67 66 0.34 66 0 66 C-0.11479451 59.86487098 0.04543804 53.80808081 0.5 47.6875 C1.61344085 31.78120215 0.6747465 15.9103789 0 0 Z " fill="#AA682C" transform="translate(315,138)"/>
<path d="M0 0 C-0.61875 0.28875 -1.2375 0.5775 -1.875 0.875 C-4.13325765 1.93720042 -4.13325765 1.93720042 -6 4 C-7.98828125 4.5625 -7.98828125 4.5625 -10.3125 5 C-12.89424124 5.52127367 -15.06844136 6.02908758 -17.5 7.0625 C-20.68449409 8.25668529 -23.73369726 8.4800516 -27.109375 8.75390625 C-29.00903861 8.80573168 -29.00903861 8.80573168 -30 10 C-46.33229687 13.14259083 -61.83522805 12.65502246 -78 9 C-75.30312114 8.02912361 -73.71294028 8.04222051 -70.82788086 8.46655273 C-66.93197735 9.00947953 -63.24785472 9.1134452 -59.31640625 9.09765625 C-58.61603745 9.0962413 -57.91566864 9.09482635 -57.19407654 9.09336853 C-54.98350534 9.08782477 -52.77303996 9.07528326 -50.5625 9.0625 C-49.05273585 9.05747771 -47.54297009 9.05291609 -46.03320312 9.04882812 C-42.35543507 9.03787387 -38.67772788 9.0206489 -35 9 C-35 8.34 -35 7.68 -35 7 C-30.38 7 -25.76 7 -21 7 C-21 6.01 -21 5.02 -21 4 C-18.43923903 3.32595716 -15.87673417 2.660586 -13.3125 2 C-12.59126953 1.80921875 -11.87003906 1.6184375 -11.12695312 1.421875 C-7.33149039 0.45134572 -3.95384561 -0.24955239 0 0 Z " fill="#906339" transform="translate(433,311)"/>
<path d="M0 0 C1.65 0 3.3 0 5 0 C5 9.24 5 18.48 5 28 C3.35 28 1.7 28 0 28 C0 18.76 0 9.52 0 0 Z " fill="#F9F9F9" transform="translate(116,529)"/>
<path d="M0 0 C7.29185038 14.58370076 5.57381614 37.40516594 2 53 C0.42578125 55.4375 0.42578125 55.4375 -1 57 C-0.85492922 55.66658348 -0.7088897 54.33327236 -0.5625 53 C-0.48128906 52.2575 -0.40007812 51.515 -0.31640625 50.75 C-0.06490132 48.56408057 0.22464649 46.3825453 0.52734375 44.203125 C1.04793064 40.03842984 1.15154621 35.94335294 1.125 31.75 C1.12306641 30.99219238 1.12113281 30.23438477 1.11914062 29.45361328 C1.05197343 20.28715719 0.51553386 11.15072606 0 2 C-9.405 2.495 -9.405 2.495 -19 3 C-13.24736889 -0.83508741 -6.68199149 -0.11884965 0 0 Z " fill="#6A8442" transform="translate(410,126)"/>
<path d="M0 0 C0.33 0 0.66 0 1 0 C1 2.64 1 5.28 1 8 C2.27875 7.79375 3.5575 7.5875 4.875 7.375 C7.0546875 7.0234375 7.0546875 7.0234375 9 7 C9.66 7.66 10.32 8.32 11 9 C10.43410156 9.12117188 9.86820313 9.24234375 9.28515625 9.3671875 C8.55167969 9.53476562 7.81820312 9.70234375 7.0625 9.875 C5.96615234 10.11863281 5.96615234 10.11863281 4.84765625 10.3671875 C2.79299706 10.82961523 2.79299706 10.82961523 2 13 C24.275 12.505 24.275 12.505 47 12 C46.505 10.515 46.505 10.515 46 9 C47.32 9.33 48.64 9.66 50 10 C49.67 11.32 49.34 12.64 49 14 C33.16 14 17.32 14 1 14 C0.67 13.01 0.34 12.02 0 11 C-0.99 10.34 -1.98 9.68 -3 9 C-2.34 8.01 -1.68 7.02 -1 6 C-0.60986284 4.0103005 -0.26797351 2.00980131 0 0 Z " fill="#151719" transform="translate(180,472)"/>
<path d="M0 0 C1.15822266 0.02707031 1.15822266 0.02707031 2.33984375 0.0546875 C3.19255859 0.08949219 3.19255859 0.08949219 4.0625 0.125 C-3.03217094 7.21967094 -22.58386858 6.15779553 -31.9375 6.25 C-38.30712532 6.20744126 -44.60297902 5.77469446 -50.9375 5.125 C-50.9375 4.795 -50.9375 4.465 -50.9375 4.125 C-49.2203479 4.04983154 -49.2203479 4.04983154 -47.46850586 3.97314453 C-43.19840055 3.78399478 -38.92887053 3.58380412 -34.65942383 3.38037109 C-32.81581128 3.29405026 -30.97205824 3.21067537 -29.12817383 3.13037109 C-26.46913418 3.0140426 -23.81078945 2.88692963 -21.15234375 2.7578125 C-20.33539536 2.72438751 -19.51844696 2.69096252 -18.67674255 2.65652466 C-12.29813089 2.33042962 -6.30206025 -0.19390955 0 0 Z " fill="#C5732B" transform="translate(198.9375,315.875)"/>
<path d="M0 0 C1.02802734 0.00322266 2.05605469 0.00644531 3.11523438 0.00976562 C4.72301758 0.02233398 4.72301758 0.02233398 6.36328125 0.03515625 C7.44673828 0.03966797 8.53019531 0.04417969 9.64648438 0.04882812 C12.3229721 0.06061882 14.99934902 0.07707562 17.67578125 0.09765625 C17.67578125 0.42765625 17.67578125 0.75765625 17.67578125 1.09765625 C10.41578125 1.09765625 3.15578125 1.09765625 -4.32421875 1.09765625 C-4.32421875 2.41765625 -4.32421875 3.73765625 -4.32421875 5.09765625 C-1.68421875 5.09765625 0.95578125 5.09765625 3.67578125 5.09765625 C3.67578125 5.42765625 3.67578125 5.75765625 3.67578125 6.09765625 C0.37578125 6.09765625 -2.92421875 6.09765625 -6.32421875 6.09765625 C-6.32421875 13.68765625 -6.32421875 21.27765625 -6.32421875 29.09765625 C-6.98421875 29.09765625 -7.64421875 29.09765625 -8.32421875 29.09765625 C-8.32421875 19.85765625 -8.32421875 10.61765625 -8.32421875 1.09765625 C-5.26502487 0.07792496 -3.2000385 -0.01767977 0 0 Z " fill="#484848" transform="translate(129.32421875,527.90234375)"/>
<path d="M0 0 C-1.65 0.33 -3.3 0.66 -5 1 C-5 0.34 -5 -0.32 -5 -1 C-16.16407062 -1.77003365 -27.31417877 -2.25752268 -38.5 -2.5625 C-40.01693415 -2.60587347 -41.5338613 -2.64949231 -43.05078125 -2.69335938 C-46.70044509 -2.79838366 -50.35019047 -2.90015036 -54 -3 C-54 -3.33 -54 -3.66 -54 -4 C-13.07899851 -8.71933234 -13.07899851 -8.71933234 0 0 Z " fill="#B36927" transform="translate(442,238)"/>
<path d="M0 0 C0 3.77398392 -1.35410505 4.61153152 -3.91015625 7.1875 C-4.96227078 8.22151919 -6.02211296 9.24773913 -7.08984375 10.265625 C-9.97029405 13.19844712 -10.92852669 14.49651024 -11.52734375 18.71484375 C-11.27591425 21.90685342 -11.27591425 21.90685342 -9.72265625 23.70703125 C-9.17480469 24.07183594 -8.62695312 24.43664062 -8.0625 24.8125 C-5 27 -5 27 -4 29 C-2.02477154 30.04808041 -0.02518491 31.0520411 2 32 C1.67 32.66 1.34 33.32 1 34 C-4.93714347 31.41201438 -10.40950165 27.59049835 -15 23 C-15.00709522 16.52916096 -13.38745182 13.57656067 -8.93554688 8.96484375 C-8.27619141 8.31644531 -7.61683594 7.66804688 -6.9375 7 C-6.27427734 6.32066406 -5.61105469 5.64132812 -4.92773438 4.94140625 C-3.29991895 3.27845812 -1.65797764 1.63278429 0 0 Z " fill="#9A5F29" transform="translate(313,270)"/>
<path d="M0 0 C1.28300777 2.56601555 0.85098078 3.66479324 0.25 6.4375 C0.01023437 7.61119141 0.01023437 7.61119141 -0.234375 8.80859375 C-1.09298571 11.26614786 -2.15526808 12.217883 -4 14 C-4.74386068 16.30988315 -5.42190703 18.64315944 -6 21 C-2.535 20.505 -2.535 20.505 1 20 C-4.83098592 25.99295775 -4.83098592 25.99295775 -8 28 C-8.99 28 -9.98 28 -11 28 C-11.35549804 23.73402357 -10.5222015 22.32416363 -8 19 C-7.30077905 17.46065046 -6.65642794 15.89545816 -6.0625 14.3125 C-4.19719869 9.46559736 -2.14699355 4.72795387 0 0 Z " fill="#758F4A" transform="translate(320,228)"/>
<path d="M0 0 C0.6796875 1.78515625 0.6796875 1.78515625 1 4 C-2.90294403 10.10005588 -10.49378834 14.84809059 -17.4296875 16.62109375 C-20.14921769 17.02199714 -22.75134634 17.16819766 -25.5 17.1875 C-26.87671875 17.20876953 -26.87671875 17.20876953 -28.28125 17.23046875 C-31.19552633 16.98342521 -33.35358797 16.21293885 -36 15 C-32.55464976 13.27732488 -28.6359885 14.04507933 -24.84765625 14.16015625 C-21.79554586 14.22993839 -21.79554586 14.22993839 -19 12 C-16.95703125 11.8046875 -16.95703125 11.8046875 -14.8125 11.875 C-12.9253125 11.936875 -12.9253125 11.936875 -11 12 C-11 11.34 -11 10.68 -11 10 C-10.278125 9.773125 -9.55625 9.54625 -8.8125 9.3125 C-5.42314891 7.73080282 -3.4575312 5.79885498 -1 3 C-0.67 2.01 -0.34 1.02 0 0 Z " fill="#5B703A" transform="translate(300,341)"/>
<path d="M0 0 C0 0.33 0 0.66 0 1 C-0.88034912 1.01458252 -1.76069824 1.02916504 -2.66772461 1.04418945 C-24.38290026 1.27523193 -24.38290026 1.27523193 -45.8203125 4.37890625 C-48.96591095 4.99334133 -51.80432978 5.11170276 -55 5 C-55 4.67 -55 4.34 -55 4 C-36.36517723 -1.07216835 -19.19045608 -2.22498042 0 0 Z " fill="#6A4A2C" transform="translate(157,233)"/>
<path d="M0 0 C2.00277585 0.31622777 4.00189338 0.65549886 6 1 C7.24716797 1.20109375 7.24716797 1.20109375 8.51953125 1.40625 C9.84017578 1.63828125 9.84017578 1.63828125 11.1875 1.875 C12.02667969 2.01679688 12.86585937 2.15859375 13.73046875 2.3046875 C16.30904829 3.09468261 17.12887076 4.12887076 19 6 C21.25813697 6.71913886 21.25813697 6.71913886 23.75 7.0625 C27.94834004 7.79505493 31.92489002 8.75974914 36 10 C36 10.66 36 11.32 36 12 C38.31 12 40.62 12 43 12 C43 12.33 43 12.66 43 13 C28.16192258 14.21127163 13.34215397 6.60186999 0 1 C0 0.67 0 0.34 0 0 Z " fill="#9C622C" transform="translate(105,307)"/>
<path d="M0 0 C0.66 0 1.32 0 2 0 C2 1.32 2 2.64 2 4 C1.34 4 0.68 4 0 4 C0.01047363 4.74572266 0.02094727 5.49144531 0.03173828 6.25976562 C0.07358445 9.67314213 0.09941676 13.08646442 0.125 16.5 C0.14175781 17.67304688 0.15851563 18.84609375 0.17578125 20.0546875 C0.25757312 34.61364032 0.25757312 34.61364032 -4 41 C-3.93288818 40.35530762 -3.86577637 39.71061523 -3.79663086 39.04638672 C-2.97023658 30.63259909 -2.68523653 22.23802407 -2.48242188 13.7890625 C-2.44826172 12.726875 -2.41410156 11.6646875 -2.37890625 10.5703125 C-2.3538501 9.61914551 -2.32879395 8.66797852 -2.30297852 7.68798828 C-1.9804631 4.826671 -1.18518016 2.61219752 0 0 Z " fill="#7B9F43" transform="translate(332,159)"/>
<path d="M0 0 C0.33 0 0.66 0 1 0 C1 9.24 1 18.48 1 28 C1.66 28 2.32 28 3 28 C3.50812114 30.51943396 4.00664534 33.04016873 4.5 35.5625 C4.64308594 36.26697266 4.78617188 36.97144531 4.93359375 37.69726562 C5.80874925 42.21890238 6.14523405 46.39487028 6 51 C4.35907235 47.96677009 3.33614634 45.01390293 2.4375 41.6875 C2.18871094 40.78386719 1.93992188 39.88023437 1.68359375 38.94921875 C0.36871557 33.27645861 -0.12350462 27.78853869 -0.09765625 21.97265625 C-0.09443359 20.68681641 -0.09121094 19.40097656 -0.08789062 18.07617188 C-0.07953802 16.73828055 -0.07107311 15.40038993 -0.0625 14.0625 C-0.05747659 12.69726726 -0.05291517 11.33203274 -0.04882812 9.96679688 C-0.03708851 6.64448543 -0.02066679 3.32226592 0 0 Z " fill="#667C41" transform="translate(137,137)"/>
<path d="M0 0 C4.75 1.875 4.75 1.875 7 3 C7 7.29 7 11.58 7 16 C5.35 15.67 3.7 15.34 2 15 C1.93941406 14.25234375 1.87882813 13.5046875 1.81640625 12.734375 C1.73261719 11.74953125 1.64882812 10.7646875 1.5625 9.75 C1.48128906 8.77546875 1.40007812 7.8009375 1.31640625 6.796875 C1.04925416 4.43538247 0.64628032 2.28098935 0 0 Z " fill="#BDC2C5" transform="translate(175,360)"/>
<path d="M0 0 C0 0.33 0 0.66 0 1 C-1.45019531 1.25523437 -1.45019531 1.25523437 -2.9296875 1.515625 C-11.89698022 3.15926316 -19.89312894 5.39445354 -28.0625 9.5625 C-38.70797804 14.77198925 -38.70797804 14.77198925 -44 13 C-40.11879274 10.41252849 -36.46928007 9.25453476 -32 8 C-31.05125 7.525625 -30.1025 7.05125 -29.125 6.5625 C-20.00373356 2.00186678 -10.17611133 -0.37004041 0 0 Z " fill="#926032" transform="translate(387,235)"/>
<path d="M0 0 C4.83852026 3.26600117 4.83852026 3.26600117 5.515625 6.34375 C4.76473116 10.21199099 2.31465396 11.67080578 -0.75 13.8125 C-1.28882813 14.21919922 -1.82765625 14.62589844 -2.3828125 15.04492188 C-5.61741346 17.39197989 -6.8764219 18 -11 18 C-11 18.66 -11 19.32 -11 20 C-12.28650706 20.69710731 -13.57940665 21.38242876 -14.875 22.0625 C-15.95394531 22.63677734 -15.95394531 22.63677734 -17.0546875 23.22265625 C-17.69664062 23.47917969 -18.33859375 23.73570312 -19 24 C-19.66 23.67 -20.32 23.34 -21 23 C-16.25 19 -16.25 19 -14 19 C-14 18.34 -14 17.68 -14 17 C-13.39671875 16.81824219 -12.7934375 16.63648438 -12.171875 16.44921875 C-6.08803277 14.64422988 -6.08803277 14.64422988 -1 11 C-0.67 10.01 -0.34 9.02 0 8 C0.99 8 1.98 8 3 8 C2.5359375 6.8553125 2.5359375 6.8553125 2.0625 5.6875 C1.32106407 3.81210323 0.63771783 1.91315348 0 0 Z " fill="#995C28" transform="translate(245,285)"/>
<path d="M0 0 C1.258125 -0.04125 2.51625 -0.0825 3.8125 -0.125 C4.52019531 -0.14820313 5.22789062 -0.17140625 5.95703125 -0.1953125 C8 0 8 0 11 2 C12.010625 2.12375 13.02125 2.2475 14.0625 2.375 C18.24694397 3.03919746 21.61151809 4.3154113 25.4921875 5.953125 C27.82715671 6.92784735 30.17595558 7.78671558 32.5625 8.625 C36 10 36 10 37 12 C30.69197036 10.81022929 24.54321645 9.15164518 18.6875 6.5 C14.14613513 4.65266514 9.58811649 3.72278092 4.79296875 2.74609375 C2 2 2 2 0 0 Z " fill="#5C7138" transform="translate(173,225)"/>
<path d="M0 0 C3 1 3 1 4.1875 2.875 C5 5 5 5 5 8 C5.66 8 6.32 8 7 8 C9.44338051 10.04577004 10.79982378 12.21802959 12.1875 15.0625 C12.53167969 15.75472656 12.87585938 16.44695312 13.23046875 17.16015625 C14 19 14 19 14 21 C14.99 21 15.98 21 17 21 C17.33 22.98 17.66 24.96 18 27 C10.26592461 19.49339741 2.17915379 10.94704316 0 0 Z " fill="#B76C29" transform="translate(246,234)"/>
<path d="M0 0 C1.32 0 2.64 0 4 0 C4.28100502 7.16562789 3.20443195 13.94546999 2 21 C1.67 21 1.34 21 1 21 C1 17.37 1 13.74 1 10 C0.01 10 -0.98 10 -2 10 C-2.33 11.32 -2.66 12.64 -3 14 C-3.66 14 -4.32 14 -5 14 C-3.46527032 9.27775484 -1.76054874 4.64144669 0 0 Z " fill="#AEB4B9" transform="translate(180,449)"/>
<path d="M0 0 C0.75 1.6875 0.75 1.6875 1 4 C-0.2879728 5.70196405 -1.62986661 7.36345179 -3 9 C-3.7115625 10.7325 -3.7115625 10.7325 -4.4375 12.5 C-6.12469902 16.27932581 -8.02791832 18.17652241 -11 21 C-12.05287814 22.63377642 -13.0727001 24.29181597 -14 26 C-14.66015625 24.2578125 -14.66015625 24.2578125 -15 22 C-13.99609375 19.9921875 -13.99609375 19.9921875 -12.4375 17.875 C-9.44083504 13.67687496 -6.83741097 9.35800808 -4.296875 4.87109375 C-3.65492188 3.94490234 -3.65492188 3.94490234 -3 3 C-2.34 3 -1.68 3 -1 3 C-0.67 2.01 -0.34 1.02 0 0 Z " fill="#B26D31" transform="translate(261,88)"/>
<path d="M0 0 C-4.75 3 -4.75 3 -7 3 C-7.25910156 3.60070312 -7.51820313 4.20140625 -7.78515625 4.8203125 C-9.09554726 7.17143206 -10.31275486 8.25745209 -12.4375 9.875 C-15.6961908 12.53626416 -17.40183996 15.0516046 -19 19 C-19.83988427 16.63782548 -20.17347191 15.44632878 -19.25 13.0703125 C-15.31762746 6.95055773 -8.25625534 -2.94866262 0 0 Z " fill="#6C8641" transform="translate(268,303)"/>
<path d="M0 0 C0.66 0.33 1.32 0.66 2 1 C0.2308289 3.10558394 -1.5402601 5.20950158 -3.3125 7.3125 C-3.81201172 7.90740234 -4.31152344 8.50230469 -4.82617188 9.11523438 C-5.31279297 9.69208984 -5.79941406 10.26894531 -6.30078125 10.86328125 C-6.74591064 11.39219971 -7.19104004 11.92111816 -7.6496582 12.46606445 C-9.04987216 14.05665282 -10.42021328 15.58547513 -12 17 C-12.66 17 -13.32 17 -14 17 C-14.2475 17.5775 -14.495 18.155 -14.75 18.75 C-16.16683317 21.3002997 -17.87627537 23.01785701 -20 25 C-20.66 24.67 -21.32 24.34 -22 24 C-21.16855469 23.11957031 -20.33710938 22.23914063 -19.48046875 21.33203125 C-18.38257928 20.15907242 -17.28493599 18.98588312 -16.1875 17.8125 C-15.64029297 17.23435547 -15.09308594 16.65621094 -14.52929688 16.06054688 C-11.54793977 12.8623638 -9.22633426 9.77959071 -7 6 C-5.17578125 4.19921875 -5.17578125 4.19921875 -3.3125 2.6875 C-2.68988281 2.17574219 -2.06726563 1.66398437 -1.42578125 1.13671875 C-0.95527344 0.76160156 -0.48476563 0.38648438 0 0 Z " fill="#E27C22" transform="translate(323,261)"/>
<path d="M0 0 C0.66 0 1.32 0 2 0 C1.45018084 6.04801071 0.09570426 11.30601106 -2 17 C-2.66 17 -3.32 17 -4 17 C-4.0825 18.216875 -4.165 19.43375 -4.25 20.6875 C-4.73758372 24.78465871 -6.09510536 27.00139908 -9 30 C-9 28.02 -9 26.04 -9 24 C-8.01 23.67 -7.02 23.34 -6 23 C-5.505 18.545 -5.505 18.545 -5 14 C-4.34 14 -3.68 14 -3 14 C-2.44216452 10.73267791 -1.93109112 7.4745698 -1.5 4.1875 C-1 1 -1 1 0 0 Z " fill="#A5642C" transform="translate(313,204)"/>
<path d="M0 0 C0.66 0.33 1.32 0.66 2 1 C-2.15890366 6.14191725 -6.72329801 10.75758795 -11.5625 15.25 C-12.10414795 15.75692383 -12.6457959 16.26384766 -13.20385742 16.78613281 C-16.6111777 19.91230403 -20.08964071 22.53029939 -24 25 C-24.66 24.67 -25.32 24.34 -26 24 C-25.505 22.515 -25.505 22.515 -25 21 C-23.329375 20.319375 -23.329375 20.319375 -21.625 19.625 C-17.62651688 17.83257653 -17.00392338 16.70725826 -15 13 C-14.01 13 -13.02 13 -12 13 C-12 12.01 -12 11.02 -12 10 C-11.2575 9.773125 -10.515 9.54625 -9.75 9.3125 C-6.45033483 7.7376598 -5.14021949 5.92496664 -3 3 C-2.01769502 1.9826127 -1.02530403 0.97403883 0 0 Z " fill="#7F5630" transform="translate(482,273)"/>
<path d="M0 0 C7.53191489 0.89361702 7.53191489 0.89361702 10.75 1.625 C12.99942015 2.1679627 12.99942015 2.1679627 15.125 1.375 C16.053125 1.189375 16.053125 1.189375 17 1 C18.02297922 1.97648017 19.01904252 2.98131338 20 4 C23.10007201 5.20049407 23.10007201 5.20049407 26 6 C26 6.33 26 6.66 26 7 C16.59535657 7.52248019 8.65777462 4.36691235 0 1 C0 0.67 0 0.34 0 0 Z " fill="#A8662A" transform="translate(329,312)"/>
<path d="M0 0 C0.99 0.33 1.98 0.66 3 1 C3 1.99 3 2.98 3 4 C-9.70832863 4.12807946 -22.31595119 3.79541627 -35 3 C-35 2.67 -35 2.34 -35 2 C-23.45 2 -11.9 2 0 2 C0 1.34 0 0.68 0 0 Z " fill="#52585B" transform="translate(535,482)"/>
<path d="M0 0 C0 0.99 0 1.98 0 3 C-0.78375 3.7425 -1.5675 4.485 -2.375 5.25 C-5.54874189 8.57487246 -6.04947197 10.59300639 -7 15 C-6.34 15 -5.68 15 -5 15 C-4.67 16.65 -4.34 18.3 -4 20 C-6.98992688 17.39339708 -8.79135317 15.74516726 -9.875 11.875 C-10 9 -10 9 -9 6 C-8.34 6 -7.68 6 -7 6 C-7 5.34 -7 4.68 -7 4 C-4.69 2.68 -2.38 1.36 0 0 Z " fill="#9F6633" transform="translate(68,254)"/>
<path d="M0 0 C0.66 0 1.32 0 2 0 C2.6496875 0.96679688 2.6496875 0.96679688 3.3125 1.953125 C4.83169232 4.20543135 4.83169232 4.20543135 7.375 4.609375 C8.24125 4.65578125 9.1075 4.7021875 10 4.75 C10.86625 4.80671875 11.7325 4.8634375 12.625 4.921875 C14.41588725 4.98078576 16.20814409 5 18 5 C17.12432227 6.03817463 16.22347209 7.05515303 15.3125 8.0625 C14.81363281 8.63097656 14.31476563 9.19945312 13.80078125 9.78515625 C12 11 12 11 9.53125 10.9296875 C6.49928105 9.81609397 5.23935153 8.53455642 3.1875 6.0625 C2.58292969 5.35222656 1.97835938 4.64195312 1.35546875 3.91015625 C0 2 0 2 0 0 Z " fill="#C36E23" transform="translate(264,261)"/>
<path d="M0 0 C2.64 0 5.28 0 8 0 C7.67 0.66 7.34 1.32 7 2 C4.71484375 2.6328125 4.71484375 2.6328125 1.9375 3.125 C1.01839844 3.29257813 0.09929687 3.46015625 -0.84765625 3.6328125 C-1.91306641 3.81457031 -1.91306641 3.81457031 -3 4 C-3.33 4.99 -3.66 5.98 -4 7 C-7.60051153 9.40034102 -10.96144535 11.32187705 -15.375 10.625 C-15.91125 10.41875 -16.4475 10.2125 -17 10 C-13.14844108 7.54900796 -9.20760119 5.75954232 -5 4 C-1.82144422 2.7113001 -1.82144422 2.7113001 0 0 Z " fill="#AF6C2E" transform="translate(94,238)"/>
<path d="M0 0 C3.58621852 0.56254408 5.0145244 1.73584797 7.3125 4.5 C7.90804688 5.21414062 8.50359375 5.92828125 9.1171875 6.6640625 C9.73851562 7.43492188 10.35984375 8.20578125 11 9 C11.99386719 10.21816406 11.99386719 10.21816406 13.0078125 11.4609375 C18 17.7062247 18 17.7062247 18 20 C16 20 16 20 14.484375 18.53125 C3 5.08108108 3 5.08108108 3 2 C2.01 2 1.02 2 0 2 C0 1.34 0 0.68 0 0 Z " fill="#8E5B2E" transform="translate(280,80)"/>
<path d="M0 0 C-1.52761987 3.62809719 -3.70607139 5.94346298 -6.5 8.6875 C-7.69109375 9.86892578 -7.69109375 9.86892578 -8.90625 11.07421875 C-11 13 -11 13 -13 14 C-13.72159424 15.64363134 -14.39351421 17.31050386 -15 19 C-15.66 19 -16.32 19 -17 19 C-15.64862992 13.14999007 -12.68936704 10.14170332 -8.5 6.125 C-7.60861328 5.23554688 -7.60861328 5.23554688 -6.69921875 4.328125 C-2.28134001 0 -2.28134001 0 0 0 Z " fill="#36383A" transform="translate(99,349)"/>
<path d="M0 0 C4.53090703 0.05663634 8.61736519 0.99489824 12.96875 2.1875 C14.05929688 2.47367188 14.05929688 2.47367188 15.171875 2.765625 C16.93981531 3.23087245 18.70463933 3.70793593 20.46875 4.1875 C17.3835754 5.13352608 14.97615993 5.20328237 11.78125 4.8125 C10.99363281 4.72226563 10.20601562 4.63203125 9.39453125 4.5390625 C7.46875 4.1875 7.46875 4.1875 6.46875 3.1875 C4.95405552 2.95557135 3.43120438 2.77534762 1.90625 2.625 C1.07996094 2.54121094 0.25367188 2.45742187 -0.59765625 2.37109375 C-1.23574219 2.31050781 -1.87382812 2.24992188 -2.53125 2.1875 C-2.86125 3.1775 -3.19125 4.1675 -3.53125 5.1875 C-4.09375 3.25 -4.09375 3.25 -4.53125 1.1875 C-3.53125 0.1875 -3.53125 0.1875 0 0 Z " fill="#769642" transform="translate(144.53125,125.8125)"/>
<path d="M0 0 C0.66 0.33 1.32 0.66 2 1 C1 4 1 4 -0.671875 5.02734375 C-1.35765625 5.32769531 -2.0434375 5.62804687 -2.75 5.9375 C-5.54378217 7.22463536 -7.34965563 8.29402859 -9.75 10.3125 C-10.4925 10.869375 -11.235 11.42625 -12 12 C-14.140625 11.60546875 -14.140625 11.60546875 -16 11 C-14.27278316 9.72651788 -12.54313762 8.45632943 -10.8125 7.1875 C-9.84957031 6.47980469 -8.88664062 5.77210938 -7.89453125 5.04296875 C-5.30857667 3.21779433 -2.80897441 1.46027858 0 0 Z " fill="#9E6532" transform="translate(341,249)"/>
<path d="M0 0 C1.57991397 2.84055199 2.31434502 5.14267346 2.6328125 8.37109375 C2.71660156 9.19287109 2.80039063 10.01464844 2.88671875 10.86132812 C2.96535156 11.71146484 3.04398438 12.56160156 3.125 13.4375 C3.21136719 14.28376953 3.29773438 15.13003906 3.38671875 16.00195312 C3.78259256 20.01410275 4.11605253 23.96302986 4 28 C-1.30596276 20.04105585 -0.24125736 9.18118272 0 0 Z " fill="#3E4A29" transform="translate(221,181)"/>
<path d="M0 0 C0.66 0.33 1.32 0.66 2 1 C-2.49108302 6.52964597 -7.12125596 10.96886123 -13 15 C-11.50403926 11.60502173 -9.5352395 9.12862797 -7.0625 6.375 C-6.37285156 5.59898437 -5.68320313 4.82296875 -4.97265625 4.0234375 C-3 2 -3 2 0 0 Z " fill="#B9BCBE" transform="translate(73,349)"/>
<path d="M0 0 C0.99 0 1.98 0 3 0 C3.33970765 2.49927769 3.67188032 4.99919595 4 7.5 C4.09539062 8.19609375 4.19078125 8.8921875 4.2890625 9.609375 C4.9161622 14.44700129 5.08789528 19.12181196 5 24 C2.9859044 20.9788566 2.73163404 20.19339983 2.5859375 16.76953125 C2.54726563 15.96708984 2.50859375 15.16464844 2.46875 14.33789062 C2.4378125 13.50451172 2.406875 12.67113281 2.375 11.8125 C2.33632813 10.96751953 2.29765625 10.12253906 2.2578125 9.25195312 C2.16363721 7.16832476 2.08073325 5.08419247 2 3 C-0.33075929 3.95865509 -0.33075929 3.95865509 -2 7 C-1.125 2.25 -1.125 2.25 0 0 Z " fill="#626668" transform="translate(324,386)"/>
<path d="M0 0 C-0.66 0.66 -1.32 1.32 -2 2 C-4.14330669 2 -6.28692352 1.99354191 -8.4296875 1.9453125 C-14.04771858 2.06484508 -19.44940533 3.54244748 -24.8125 5.125 C-27.7315883 5.92631836 -29.99889274 6.18188529 -33 6 C-23.31698512 -0.45534326 -11.19267107 -0.15147976 0 0 Z " fill="#E87C21" transform="translate(400,235)"/>
<path d="M0 0 C0.33 0.66 0.66 1.32 1 2 C0.01 3.485 0.01 3.485 -1 5 C-0.34 5.66 0.32 6.32 1 7 C-5.74233419 7.12910853 -12.30386804 6.797837 -19 6 C-19 5.67 -19 5.34 -19 5 C-18.20335937 4.96261719 -17.40671875 4.92523438 -16.5859375 4.88671875 C-7.56695496 4.52113098 -7.56695496 4.52113098 0 0 Z " fill="#D1D5D7" transform="translate(398,477)"/>
<path d="M0 0 C0.33 0 0.66 0 1 0 C1 2.64 1 5.28 1 8 C2.27875 7.79375 3.5575 7.5875 4.875 7.375 C7.0546875 7.0234375 7.0546875 7.0234375 9 7 C9.66 7.66 10.32 8.32 11 9 C7.97265625 9.68359375 7.97265625 9.68359375 4.9453125 10.3671875 C2.79280036 10.90474428 2.79280036 10.90474428 1 13 C0.67 12.34 0.34 11.68 0 11 C-0.99 10.34 -1.98 9.68 -3 9 C-2.34 8.01 -1.68 7.02 -1 6 C-0.60986284 4.0103005 -0.26797351 2.00980131 0 0 Z " fill="#353839" transform="translate(180,472)"/>
<path d="M0 0 C-1.54959852 3.09919704 -4.06365998 3.32834134 -7.25 4.5 C-8.95929688 5.13421875 -8.95929688 5.13421875 -10.703125 5.78125 C-12.33507812 6.38453125 -12.33507812 6.38453125 -14 7 C-15.66911758 7.66050642 -17.33680536 8.32471797 -19 9 C-18.67 8.01 -18.34 7.02 -18 6 C-17.01 6 -16.02 6 -15 6 C-15 5.34 -15 4.68 -15 4 C-13.68 4 -12.36 4 -11 4 C-11 3.34 -11 2.68 -11 2 C-7.17010894 0.19769832 -4.21878192 -0.19622241 0 0 Z " fill="#171815" transform="translate(378,132)"/>
<path d="M0 0 C5.52677733 -0.19392201 9.75614911 0.2520497 15 2 C15 2.99 15 3.98 15 5 C9.39 5 3.78 5 -2 5 C-2 4.67 -2 4.34 -2 4 C2.29 4 6.58 4 11 4 C11 3.34 11 2.68 11 2 C7.37 1.67 3.74 1.34 0 1 C0 0.67 0 0.34 0 0 Z " fill="#3E464A" transform="translate(432,480)"/>
<path d="M0 0 C1.32 0.33 2.64 0.66 4 1 C4 1.99 4 2.98 4 4 C3.34 3.67 2.68 3.34 2 3 C1.95101562 4.03898437 1.90203125 5.07796875 1.8515625 6.1484375 C1.44790554 13.91953317 0.87783799 21.41572228 -1 29 C-1.33 29 -1.66 29 -2 29 C-2.125 21.375 -2.125 21.375 -1 18 C-0.85507877 16.59335074 -0.75371069 15.1818867 -0.68359375 13.76953125 C-0.64169922 12.96708984 -0.59980469 12.16464844 -0.55664062 11.33789062 C-0.51732422 10.50451172 -0.47800781 9.67113281 -0.4375 8.8125 C-0.39431641 7.96751953 -0.35113281 7.12253906 -0.30664062 6.25195312 C-0.20068482 4.16815567 -0.0998498 2.08409897 0 0 Z " fill="#424647" transform="translate(222,388)"/>
<path d="M0 0 C1.32 0.66 2.64 1.32 4 2 C4.76681614 11.73004484 4.76681614 11.73004484 2.88671875 14.84375 C1.5 16.1875 1.5 16.1875 -1 18 C-1.66 17.67 -2.32 17.34 -3 17 C-2.505 16.236875 -2.01 15.47375 -1.5 14.6875 C0.52109197 9.71898225 0.25431356 5.29348964 0 0 Z " fill="#292929" transform="translate(524,536)"/>
<path d="M0 0 C0.33 0 0.66 0 1 0 C2.75747614 4.50353262 3.19294408 8.17639811 3 13 C2.34 13 1.68 13 1 13 C1 16.63 1 20.26 1 24 C0.67 24 0.34 24 0 24 C0 16.08 0 8.16 0 0 Z " fill="#1C1C1D" transform="translate(75,395)"/>
<path d="M0 0 C0.99 0.495 0.99 0.495 2 1 C2 2.32 2 3.64 2 5 C2.99 5.33 3.98 5.66 5 6 C5.33 7.65 5.66 9.3 6 11 C6.66 11 7.32 11 8 11 C9.25664978 13.90600261 10 15.79604584 10 19 C9.34 19 8.68 19 8 19 C7.773125 18.34 7.54625 17.68 7.3125 17 C6.18564655 14.42433497 4.98170673 12.38773614 3.4375 10.0625 C1.28589348 6.7275099 0.30144456 4.01926079 0 0 Z " fill="#66803F" transform="translate(146,197)"/>
<path d="M0 0 C1.98 0 3.96 0 6 0 C6.66 1.32 7.32 2.64 8 4 C9.32 4 10.64 4 12 4 C12 4.66 12 5.32 12 6 C12.66 6 13.32 6 14 6 C14 6.66 14 7.32 14 8 C12.68 7.67 11.36 7.34 10 7 C10 6.34 10 5.68 10 5 C9.0925 4.9175 8.185 4.835 7.25 4.75 C3.59922161 3.90751268 2.36615417 2.82118382 0 0 Z " fill="#985F2D" transform="translate(315,304)"/>
<path d="M0 0 C4.00748653 0.58487641 6.85736768 1.84394575 10.3125 3.9375 C11.19550781 4.46214844 12.07851562 4.98679687 12.98828125 5.52734375 C13.65214844 6.01332031 14.31601563 6.49929688 15 7 C15 7.66 15 8.32 15 9 C11.32305352 7.62859834 8.04681411 5.96304199 4.6875 3.9375 C3.80449219 3.41027344 2.92148438 2.88304687 2.01171875 2.33984375 C1.34785156 1.89769531 0.68398437 1.45554687 0 1 C0 0.67 0 0.34 0 0 Z " fill="#8A5A30" transform="translate(90,298)"/>
<path d="M0 0 C5.15516904 1.23724057 8.61047221 2.90737815 13 6 C13.99 6.33 14.98 6.66 16 7 C16 7.66 16 8.32 16 9 C16.99 9.33 17.98 9.66 19 10 C18.01 10.495 18.01 10.495 17 11 C16.34 10.67 15.68 10.34 15 10 C15 9.34 15 8.68 15 8 C14.46375 7.87625 13.9275 7.7525 13.375 7.625 C10.5361714 6.87793984 7.77776798 5.94696636 5 5 C5 4.34 5 3.68 5 3 C2.525 2.01 2.525 2.01 0 1 C0 0.67 0 0.34 0 0 Z " fill="#9F6530" transform="translate(465,246)"/>
<path d="M0 0 C0.66 0 1.32 0 2 0 C2 1.32 2 2.64 2 4 C1.34 4 0.68 4 0 4 C-0.33 11.59 -0.66 19.18 -1 27 C-1.33 27 -1.66 27 -2 27 C-2.05827558 23.4375692 -2.09368885 19.87526181 -2.125 16.3125 C-2.14175781 15.30509766 -2.15851563 14.29769531 -2.17578125 13.25976562 C-2.18544922 11.79506836 -2.18544922 11.79506836 -2.1953125 10.30078125 C-2.20578613 9.40528564 -2.21625977 8.50979004 -2.22705078 7.5871582 C-1.97703456 4.73831743 -1.18016512 2.59105457 0 0 Z " fill="#61773B" transform="translate(332,159)"/>
<path d="M0 0 C4.86896303 0.59619955 9.32790951 1.56976822 14 3 C14 3.66 14 4.32 14 5 C16.31 5 18.62 5 21 5 C21 5.33 21 5.66 21 6 C13.98449997 6.5294717 8.38213856 4.94394944 2 2 C1.34 1.34 0.68 0.68 0 0 Z " fill="#AC672A" transform="translate(127,314)"/>
<path d="M0 0 C0 3.54957438 -0.48588719 3.88424715 -2.84375 6.35546875 C-3.72353516 7.28842773 -3.72353516 7.28842773 -4.62109375 8.24023438 C-5.24113281 8.88283203 -5.86117188 9.52542969 -6.5 10.1875 C-7.43005859 11.16879883 -7.43005859 11.16879883 -8.37890625 12.16992188 C-9.9127616 13.78636944 -11.45321411 15.39593746 -13 17 C-13 13.55262494 -12.66974196 13.27721902 -10.41015625 10.8984375 C-9.87326172 10.32609375 -9.33636719 9.75375 -8.78320312 9.1640625 C-8.21537109 8.57367188 -7.64753906 7.98328125 -7.0625 7.375 C-6.49853516 6.776875 -5.93457031 6.17875 -5.35351562 5.5625 C-1.79225128 1.79225128 -1.79225128 1.79225128 0 0 Z " fill="#735536" transform="translate(313,270)"/>
<path d="M0 0 C1.32 0 2.64 0 4 0 C4 2.64 4 5.28 4 8 C2.68 8 1.36 8 0 8 C0 5.36 0 2.72 0 0 Z " fill="#D7DADC" transform="translate(180,449)"/>
<path d="M0 0 C-5.33931188 2.86034565 -10.07943568 4.73130765 -16 6 C-14.625 4.5 -14.625 4.5 -13 3 C-12.34 3 -11.68 3 -11 3 C-11 2.34 -11 1.68 -11 1 C-3.375 -1.125 -3.375 -1.125 0 0 Z " fill="#955A27" transform="translate(224,310)"/>
<path d="M0 0 C3.63 0.66 7.26 1.32 11 2 C11.33 2.99 11.66 3.98 12 5 C8.37 5 4.74 5 1 5 C1.99 4.34 2.98 3.68 4 3 C2.68 2.34 1.36 1.68 0 1 C0 0.67 0 0.34 0 0 Z " fill="#C0C5C8" transform="translate(215,479)"/>
<path d="M0 0 C0.33 0 0.66 0 1 0 C2.06965872 6.32448699 3.13329546 12.64416673 4 19 C1.43679452 16.77112567 0.59214592 15.3251271 0 12 C-0.06743348 9.91765408 -0.08514472 7.83331443 -0.0625 5.75 C-0.04896484 4.13351562 -0.04896484 4.13351562 -0.03515625 2.484375 C-0.02355469 1.66453125 -0.01195312 0.8446875 0 0 Z " fill="#67813B" transform="translate(247,322)"/>
<path d="M0 0 C-1.04800781 0.61488281 -1.04800781 0.61488281 -2.1171875 1.2421875 C-3.02726562 1.78101563 -3.93734375 2.31984375 -4.875 2.875 C-6.23238281 3.67550781 -6.23238281 3.67550781 -7.6171875 4.4921875 C-10.06603282 5.91975352 -10.06603282 5.91975352 -12 8 C-14.125 7.625 -14.125 7.625 -16 7 C-15.67 6.34 -15.34 5.68 -15 5 C-12.6859378 4.26924352 -10.35171131 3.59861742 -8 3 C-8 2.34 -8 1.68 -8 1 C-2.25 -1.125 -2.25 -1.125 0 0 Z " fill="#A5652C" transform="translate(456,299)"/>
<path d="M0 0 C1.28300777 2.56601555 0.85098078 3.66479324 0.25 6.4375 C0.09015625 7.21996094 -0.0696875 8.00242188 -0.234375 8.80859375 C-1.09078892 11.25986011 -2.13962846 12.24243847 -4 14 C-4.33 14.99 -4.66 15.98 -5 17 C-5.66 16.67 -6.32 16.34 -7 16 C-6.73445313 15.50371094 -6.46890625 15.00742188 -6.1953125 14.49609375 C-3.87927105 10.04151769 -2.28558655 5.8456724 -1 1 C-0.67 0.67 -0.34 0.34 0 0 Z " fill="#556739" transform="translate(320,228)"/>
<path d="M0 0 C4.54468815 1.26828506 7.40351449 2.98672836 11 6 C11.99 6.33 12.98 6.66 14 7 C14 7.66 14 8.32 14 9 C14.66 9.33 15.32 9.66 16 10 C14.68 10 13.36 10 12 10 C12 9.34 12 8.68 12 8 C9.34771188 6.92474806 6.71631546 5.90543849 4 5 C4 4.34 4 3.68 4 3 C2.68 2.67 1.36 2.34 0 2 C0 1.34 0 0.68 0 0 Z " fill="#65813D" transform="translate(186,138)"/>
<path d="M0 0 C3.63 0.66 7.26 1.32 11 2 C11 2.99 11 3.98 11 5 C7.7 5 4.4 5 1 5 C1.99 4.67 2.98 4.34 4 4 C4 3.34 4 2.68 4 2 C2.68 1.67 1.36 1.34 0 1 C0 0.67 0 0.34 0 0 Z " fill="#C4C9CC" transform="translate(524,479)"/>
<path d="M0 0 C0 3 0 3 -1 7 C-4.3 7 -7.6 7 -11 7 C-11 6.34 -11 5.68 -11 5 C-9.1128125 4.5978125 -9.1128125 4.5978125 -7.1875 4.1875 C-4.00551199 3.40467463 -1.99755689 2.74664072 0 0 Z " fill="#D4D7D8" transform="translate(194,477)"/>
<path d="M0 0 C0.33 0 0.66 0 1 0 C0.9127395 2.25071906 0.80455885 4.50063388 0.6875 6.75 C0.62949219 8.00296875 0.57148438 9.2559375 0.51171875 10.546875 C-0.00455901 14.03076463 -0.6253256 15.47889796 -3 18 C-2.67352516 14.99921002 -2.33790914 11.99952226 -2 9 C-1.91621094 8.2265625 -1.83242188 7.453125 -1.74609375 6.65625 C-1.11349693 1.11349693 -1.11349693 1.11349693 0 0 Z " fill="#5F743C" transform="translate(412,165)"/>
<path d="M0 0 C1.00796724 3.16069729 0.97083624 5.33511958 0.25 8.5625 C0.09015625 9.32691406 -0.0696875 10.09132812 -0.234375 10.87890625 C-1.08787329 13.24344488 -2.11184497 14.37639417 -4 16 C-3.47606294 10.13190493 -2.23891142 5.45126259 0 0 Z " fill="#865B33" transform="translate(240,125)"/>
<path d="M0 0 C-2.24435445 1.03516348 -4.49406867 2.05314977 -6.75 3.0625 C-7.70132812 3.50432617 -7.70132812 3.50432617 -8.671875 3.95507812 C-13.45095438 6.07081639 -13.45095438 6.07081639 -16.453125 5.68359375 C-16.96359375 5.45800781 -17.4740625 5.23242188 -18 5 C-14.68651905 3.2604225 -11.34118428 1.65854305 -7.875 0.25 C-7.23304688 -0.01296875 -6.59109375 -0.2759375 -5.9296875 -0.546875 C-3.63159321 -1.08650848 -2.21829894 -0.72957388 0 0 Z " fill="#70884A" transform="translate(390,130)"/>
<path d="M0 0 C2.46968633 2.46968633 3.06997969 4.57488587 4.1875 7.875 C4.55230469 8.92429687 4.91710937 9.97359375 5.29296875 11.0546875 C5.98462433 13.93594885 6.03230681 15.27786612 5 18 C1.12907455 12.54551414 0 6.58744089 0 0 Z " fill="#945E31" transform="translate(308,118)"/>
<path d="M0 0 C0 4.31618166 -2.13270348 5.92789659 -5 9 C-5.66 9 -6.32 9 -7 9 C-6.67 10.98 -6.34 12.96 -6 15 C-6.66 14.67 -7.32 14.34 -8 14 C-8.5 11.5 -8.5 11.5 -8 8 C-5.58622266 5.04629878 -2.86095001 2.51610335 0 0 Z " fill="#5A5E5F" transform="translate(474,405)"/>
<path d="M0 0 C1.32257813 0.19142578 1.32257813 0.19142578 2.671875 0.38671875 C4.00992187 0.56654297 4.00992187 0.56654297 5.375 0.75 C6.05046875 0.85699219 6.7259375 0.96398437 7.421875 1.07421875 C7.421875 1.73421875 7.421875 2.39421875 7.421875 3.07421875 C2.801875 3.07421875 -1.818125 3.07421875 -6.578125 3.07421875 C-2.578125 0.07421875 -2.578125 0.07421875 0 0 Z " fill="#DCE0E2" transform="translate(435.578125,480.92578125)"/>
<path d="M0 0 C-1.92573236 1.92573236 -5.35537698 1.4871853 -7.96875 1.71875 C-9.99180593 1.79065837 -9.99180593 1.79065837 -11 3 C-12.66617115 3.04063832 -14.33388095 3.042721 -16 3 C-16 2.01 -16 1.02 -16 0 C-13.7089095 -0.19441368 -11.41709663 -0.38033135 -9.125 -0.5625 C-7.21074219 -0.71912109 -7.21074219 -0.71912109 -5.2578125 -0.87890625 C-2 -1 -2 -1 0 0 Z " fill="#936031" transform="translate(414,318)"/>
<path d="M0 0 C0.99 0 1.98 0 3 0 C1.77782954 4.04256383 0.37245704 7.49288959 -2 11 C-2.33 11 -2.66 11 -3 11 C-3 9.35 -3 7.7 -3 6 C-2.34 6 -1.68 6 -1 6 C-1.0309375 4.7934375 -1.0309375 4.7934375 -1.0625 3.5625 C-1 1 -1 1 0 0 Z " fill="#739341" transform="translate(402,197)"/>
<path d="M0 0 C0.33 0 0.66 0 1 0 C1.2358396 5.77807024 0.86783046 10.51324804 -1 16 C-1.33 16 -1.66 16 -2 16 C-2 12.37 -2 8.74 -2 5 C-1.34 5 -0.68 5 0 5 C0 3.35 0 1.7 0 0 Z " fill="#905E31" transform="translate(317,188)"/>
<path d="M0 0 C0.66 0.33 1.32 0.66 2 1 C-0.31 3.64 -2.62 6.28 -5 9 C-6.32 8.67 -7.64 8.34 -9 8 C-6.03 5.36 -3.06 2.72 0 0 Z " fill="#926337" transform="translate(323,261)"/>
<path d="M0 0 C5.66710699 1.31793186 7.66437233 3.48709197 11 8 C7.24026115 8 6.54322371 7.03457593 3.8125 4.5625 C3.09707031 3.92441406 2.38164063 3.28632813 1.64453125 2.62890625 C1.10183594 2.09136719 0.55914062 1.55382812 0 1 C0 0.67 0 0.34 0 0 Z " fill="#8C5A2D" transform="translate(79,289)"/>
<path d="M0 0 C0.66 0.33 1.32 0.66 2 1 C0.14423133 3.20013812 -1.71958135 5.23468768 -4 7 C-6.75 7.125 -6.75 7.125 -9 6 C-10.3125 3.9375 -10.3125 3.9375 -11 2 C-10.13375 2.5259375 -10.13375 2.5259375 -9.25 3.0625 C-7.08596543 4.16953689 -7.08596543 4.16953689 -4.9375 3.8125 C-2.74244718 2.89199398 -1.55133719 1.78403777 0 0 Z " fill="#6B4C30" transform="translate(280,265)"/>
<path d="M0 0 C0 0.99 0 1.98 0 3 C-1.66666667 4.66666667 -3.33333333 6.33333333 -5 8 C-6.319018 10.66533035 -6.319018 10.66533035 -7 13 C-7.33 13 -7.66 13 -8 13 C-8.41518628 9.47091664 -7.99344202 7.9880551 -6.25 4.8125 C-4.18298953 2.22873692 -3.05220966 1.09007488 0 0 Z " fill="#BD6F29" transform="translate(68,254)"/>
<path d="M0 0 C2.09749995 2.35968744 2.96905704 3.54616994 3.1875 6.75 C3.125625 7.4925 3.06375 8.235 3 9 C0.625 8.6875 0.625 8.6875 -2 8 C-2.66 7.01 -3.32 6.02 -4 5 C-1.525 5.495 -1.525 5.495 1 6 C0.67 4.02 0.34 2.04 0 0 Z " fill="#55643C" transform="translate(239,247)"/>
<path d="M0 0 C5.28497409 0.0880829 5.28497409 0.0880829 8 1 C9.94583442 3.22381076 10.79889012 5.24745652 12 8 C9.14940657 6.61964507 6.44119096 5.10703513 3.75 3.4375 C3.04359375 3.00308594 2.3371875 2.56867188 1.609375 2.12109375 C1.07828125 1.75113281 0.5471875 1.38117188 0 1 C0 0.67 0 0.34 0 0 Z " fill="#637C3A" transform="translate(223,244)"/>
<path d="M0 0 C-1.20381448 2.49361571 -2.45428722 4.68143083 -4 7 C-4.45139459 9.0492094 -4.45139459 9.0492094 -4.625 11.1875 C-4.74875 12.445625 -4.8725 13.70375 -5 15 C-5.33 15 -5.66 15 -6 15 C-6.62608696 6.04347826 -6.62608696 6.04347826 -4.125 1.875 C-2 0 -2 0 0 0 Z " fill="#4E4E4E" transform="translate(252,533)"/>
<path d="M0 0 C1.32 0.33 2.64 0.66 4 1 C0.04 4.465 0.04 4.465 -4 8 C-4.66 7.67 -5.32 7.34 -6 7 C-4.02 4.69 -2.04 2.38 0 0 Z " fill="#ED7E1E" transform="translate(325,261)"/>
<path d="M0 0 C4.43458973 1.3937282 6.87378374 3.60582235 10 7 C7.69 6.67 5.38 6.34 3 6 C3 5.01 3 4.02 3 3 C2.01 3 1.02 3 0 3 C0 2.01 0 1.02 0 0 Z " fill="#AC682D" transform="translate(217,258)"/>
<path d="M0 0 C2.64 0 5.28 0 8 0 C7.67 0.66 7.34 1.32 7 2 C4.27734375 2.8515625 4.27734375 2.8515625 0.9375 3.625 C-0.16722656 3.88539063 -1.27195312 4.14578125 -2.41015625 4.4140625 C-3.26480469 4.60742188 -4.11945313 4.80078125 -5 5 C-4 3 -4 3 -1 2 C-0.67 1.34 -0.34 0.68 0 0 Z " fill="#4C3724" transform="translate(94,238)"/>
<path d="M0 0 C2.51100916 1.25550458 2.84591575 2.31919616 4.0625 4.8125 C4.57490234 5.84310547 4.57490234 5.84310547 5.09765625 6.89453125 C5.96535994 8.91917319 6.53169072 10.85157081 7 13 C6.01 12.67 5.02 12.34 4 12 C2.03638798 8.07277596 0.65802821 4.3429862 0 0 Z " fill="#89592E" transform="translate(301,105)"/>
<path d="M0 0 C0.33 1.32 0.66 2.64 1 4 C-1.31 5.98 -3.62 7.96 -6 10 C-6.66 9.67 -7.32 9.34 -8 9 C-6.71937515 7.2925002 -5.38232443 5.62626404 -4 4 C-3.34 4 -2.68 4 -2 4 C-1.34 2.68 -0.68 1.36 0 0 Z " fill="#8F6137" transform="translate(270,78)"/>
<path d="M0 0 C0.98120464 3.05263664 0.98120464 4.94736336 0 8 C-0.66 8 -1.32 8 -2 8 C-2 8.99 -2 9.98 -2 11 C-2.66 11 -3.32 11 -4 11 C-3.48964169 6.6109185 -2.47785723 3.66291938 0 0 Z " fill="#976435" transform="translate(245,114)"/>
<path d="M0 0 C1.32 0.33 2.64 0.66 4 1 C4 1.99 4 2.98 4 4 C-0.62 4 -5.24 4 -10 4 C-10 3.67 -10 3.34 -10 3 C-6.37 3 -2.74 3 1 3 C0.67 2.01 0.34 1.02 0 0 Z " fill="#353F45" transform="translate(226,481)"/>
<path d="M0 0 C2.125 0.375 2.125 0.375 4 1 C3.34 1 2.68 1 2 1 C1.71125 1.598125 1.4225 2.19625 1.125 2.8125 C0 5 0 5 -2 8 C-2.66 8 -3.32 8 -4 8 C-2.25 2.25 -2.25 2.25 0 0 Z " fill="#B3B7B8" transform="translate(337,332)"/>
<path d="M0 0 C0.75 1.6875 0.75 1.6875 1 4 C-1.13381449 7.2769294 -2.25018012 8.75006004 -6 10 C-4.125 5.25 -4.125 5.25 -3 3 C-2.34 3 -1.68 3 -1 3 C-0.67 2.01 -0.34 1.02 0 0 Z " fill="#835B37" transform="translate(261,88)"/>
<path d="M0 0 C2.97 0.33 5.94 0.66 9 1 C9 1.66 9 2.32 9 3 C9.66 3.33 10.32 3.66 11 4 C3.375 3.375 3.375 3.375 0 0 Z " fill="#729042" transform="translate(259,352)"/>
<path d="M0 0 C1.32 0 2.64 0 4 0 C2.83857315 4.35535069 1.92300495 6.64619703 -2 9 C-1.34 6.03 -0.68 3.06 0 0 Z " fill="#A2632A" transform="translate(294,244)"/>
<path d="M0 0 C3.81684226 1.55500981 6.19195732 4.03595495 9 7 C8.67 7.66 8.34 8.32 8 9 C6.8450079 8.26418258 5.70125815 7.51069961 4.5625 6.75 C3.60537109 6.12351562 3.60537109 6.12351562 2.62890625 5.484375 C0.70097943 3.72751123 0.38520564 2.53910197 0 0 Z " fill="#556837" transform="translate(291,305)"/>
<path d="M0 0 C3 1 3 1 3.984375 2.77734375 C4.23703125 3.49019531 4.4896875 4.20304688 4.75 4.9375 C5.01296875 5.64777344 5.2759375 6.35804688 5.546875 7.08984375 C6 9 6 9 5 11 C4.16151196 9.54462432 3.32936066 8.08559627 2.5 6.625 C1.80390625 5.40683594 1.80390625 5.40683594 1.09375 4.1640625 C0 2 0 2 0 0 Z " fill="#A26631" transform="translate(246,234)"/>
<path d="M0 0 C1.32 0.33 2.64 0.66 4 1 C4 1.99 4 2.98 4 4 C3.34 3.67 2.68 3.34 2 3 C1.67 5.64 1.34 8.28 1 11 C0.67 11 0.34 11 0 11 C0 7.37 0 3.74 0 0 Z " fill="#8A9092" transform="translate(222,388)"/>
<path d="M0 0 C0.33 0.99 0.66 1.98 1 3 C1.66 3 2.32 3 3 3 C5 6 5 6 4.625 8.1875 C4.41875 8.785625 4.2125 9.38375 4 10 C2 9 2 9 0.875 6.6875 C0 4 0 4 0 0 Z " fill="#769446" transform="translate(234,239)"/>
<path d="M0 0 C0.66 0.33 1.32 0.66 2 1 C1.67 1.99 1.34 2.98 1 4 C-1.31 4.33 -3.62 4.66 -6 5 C-2.25 1.125 -2.25 1.125 0 0 Z " fill="#86572C" transform="translate(341,249)"/>
<path d="M0 0 C0.75 1.625 0.75 1.625 1 4 C-0.9375 7.25 -0.9375 7.25 -3 10 C-3.75 8.375 -3.75 8.375 -4 6 C-2.0625 2.75 -2.0625 2.75 0 0 Z " fill="#7F5B35" transform="translate(250,104)"/>
<path d="M0 0 C-1.45255699 3.82946843 -3.42895561 5.12050295 -7 7 C-3.86206897 0 -3.86206897 0 0 0 Z " fill="#C5C5C5" transform="translate(536,529)"/>
<path d="M0 0 C0.33 0 0.66 0 1 0 C1.26252625 4.33168317 0.29243536 7.8803623 -1 12 C-1.33 12 -1.66 12 -2 12 C-2.28571429 3.42857143 -2.28571429 3.42857143 0 0 Z " fill="#87B145" transform="translate(250,318)"/>
<path d="M0 0 C1.60080151 4.00200378 0.29279692 7.04556236 -1 11 C-1.66 11 -2.32 11 -3 11 C-3 9.68 -3 8.36 -3 7 C-2.34 7 -1.68 7 -1 7 C-0.67 4.69 -0.34 2.38 0 0 Z " fill="#718E43" transform="translate(324,217)"/>
<path d="M0 0 C3.40312738 1.05875074 6.01353231 2.00902154 9 4 C8.67 4.66 8.34 5.32 8 6 C2.25 3.375 2.25 3.375 0 0 Z " fill="#7C542D" transform="translate(306,298)"/>
<path d="M0 0 C0.99 0 1.98 0 3 0 C1.95125002 2.62187494 1.35068687 3.79371361 -1.125 5.25 C-1.74375 5.4975 -2.3625 5.745 -3 6 C-3 5.01 -3 4.02 -3 3 C-2.01 3 -1.02 3 0 3 C0 2.01 0 1.02 0 0 Z " fill="#C1712D" transform="translate(470,283)"/>
<path d="M0 0 C0 0.66 0 1.32 0 2 C-1.32 2.33 -2.64 2.66 -4 3 C-4 3.66 -4 4.32 -4 5 C-5.32 4.67 -6.64 4.34 -8 4 C-2.25 0 -2.25 0 0 0 Z " fill="#8C5C30" transform="translate(77,249)"/>
<path d="M0 0 C3.14737182 0.69941596 6.02588876 1.76078698 9 3 C7.02 3.99 7.02 3.99 5 5 C5 4.34 5 3.68 5 3 C3.68 3 2.36 3 1 3 C0.67 2.01 0.34 1.02 0 0 Z " fill="#B97132" transform="translate(194,245)"/>
<path d="M0 0 C1.98 0 3.96 0 6 0 C5.67 0.66 5.34 1.32 5 2 C2.6859378 2.73075648 0.35171131 3.40138258 -2 4 C-1.34 2.68 -0.68 1.36 0 0 Z " fill="#272A21" transform="translate(372,132)"/>
</svg>
